<svg xmlns="http://www.w3.org/2000/svg" width="660" height="450" viewBox="0 0 660 450" fill="none">
  <title>Explanatory project illustration of a rolled sheet and curved sections</title>
  <defs><linearGradient id="c" x1="120" y1="60" x2="580" y2="360" gradientUnits="userSpaceOnUse"><stop stop-color="#edcda0"/><stop offset=".55" stop-color="#b57d50"/><stop offset="1" stop-color="#554331"/></linearGradient></defs>
  <g stroke="url(#c)" stroke-width="1.5">
    <path d="M168 139L469 82C520 77 556 111 550 155L520 264L184 339" fill="#c0935520"/>
    <ellipse cx="168" cy="238" rx="72" ry="100"/>
    <path d="M165 156C90 161 109 328 172 323C230 319 213 169 161 180C118 190 127 301 169 300C203 294 192 204 162 211C139 217 143 277 168 279C186 271 179 237 162 241"/>
    <path d="M239 123L236 326M304 109L299 312M371 96L363 298M436 87L429 283M498 88L489 269" stroke-dasharray="5 13" opacity=".6"/>
    <path d="M154 345L477 275L528 306L207 387Z" fill="#c0935515"/>
    <path d="M207 353L239 379M280 337L313 362M353 321L386 345M426 305L460 329" stroke-dasharray="4 8" opacity=".7"/>
    <path d="M315 46L304 293" stroke-dasharray="7 10" opacity=".55"/>
    <circle cx="315" cy="49" r="22"/>
    <path d="M315 19V79M285 49H345" opacity=".5"/>
  </g>
</svg>
