<svg xmlns="http://www.w3.org/2000/svg" viewBox="0 0 1400 1100" width="1400" height="1100" font-family="Helvetica Neue, Helvetica, Arial, DejaVu Sans, sans-serif">
<title>Copper Scroll entry 31: under the eastern corner at Doq</title>
<defs>
 <marker id="ah-ink" viewBox="0 0 10 10" refX="8" refY="5" markerWidth="6" markerHeight="6" orient="auto-start-reverse"><path d="M0,0 L10,5 L0,10 z" fill="#2a2420"/></marker>
 <marker id="ah-ochre" viewBox="0 0 10 10" refX="8" refY="5" markerWidth="6" markerHeight="6" orient="auto-start-reverse"><path d="M0,0 L10,5 L0,10 z" fill="#8a5a17"/></marker>
 <marker id="ah-blue" viewBox="0 0 10 10" refX="8" refY="5" markerWidth="6" markerHeight="6" orient="auto-start-reverse"><path d="M0,0 L10,5 L0,10 z" fill="#245b82"/></marker>
 <marker id="ah-red" viewBox="0 0 10 10" refX="8" refY="5" markerWidth="6" markerHeight="6" orient="auto-start-reverse"><path d="M0,0 L10,5 L0,10 z" fill="#8e2e22"/></marker>
 <pattern id="hatch" width="4" height="4" patternUnits="userSpaceOnUse" patternTransform="rotate(45)"><rect width="4" height="4" fill="#efe3cf"/><line x1="0" y1="0" x2="0" y2="4" stroke="#8a5a17" stroke-width="1.2"/></pattern>
 <pattern id="rockfill" width="8" height="8" patternUnits="userSpaceOnUse"><rect width="8" height="8" fill="#e7dfd0"/><circle cx="2" cy="2" r="0.8" fill="#a49a8b"/><circle cx="6" cy="6" r="0.6" fill="#a49a8b"/></pattern>
 <pattern id="field" width="10" height="10" patternUnits="userSpaceOnUse"><rect width="10" height="10" fill="#eef1e4"/><line x1="0" y1="5" x2="10" y2="5" stroke="#b9c4a0" stroke-width="0.8"/></pattern>
 <pattern id="earth" width="6" height="6" patternUnits="userSpaceOnUse"><rect width="6" height="6" fill="#efe6d6"/><circle cx="3" cy="3" r="0.9" fill="#c9b897"/></pattern>
</defs>
<rect width="1400" height="1100" fill="#fbfaf7"/>
<text x="40.0" y="48.0" font-size="24" fill="#2a2420" font-weight="700">Entry 31 (VII 11–13) — under the eastern corner at Doq</text>
<text x="40.0" y="74.0" font-size="14.5" fill="#5a524a">Schematic plan, north up. One arrangement the text allows; not a reconstruction of any real site.</text>
<rect x="40.0" y="100.0" width="830.0" height="790.0" fill="#ffffff" stroke="#d6cfc4" stroke-width="1.1" rx="6"/>
<text x="54.0" y="124.0" font-size="14" fill="#2a2420" font-weight="700">Project reading: under the eastern corner of the guard post (Milik, Lefkovits)</text>
<text x="54.0" y="144.0" font-size="11.5" fill="#5a524a">“The eastern one” is taken with the corner. For a single corner to be eastern, the building is drawn</text>
<text x="54.0" y="160.0" font-size="11.5" fill="#5a524a">turned so that one corner falls in the east quarter (45°–135°) seen from its centre.</text>
<text x="64.0" y="194.0" font-size="13" fill="#2a2420" font-weight="700">At Doq · דוק</text>
<text x="64.0" y="210.0" font-size="10.5" fill="#8d8780">where at Doq is not given; building size and turn are not given</text>
<path d="M378.0,442.0 L533.6,286.4 A220,220 0 0,1 533.6,597.6 Z" fill="#c98a2e" stroke="none" stroke-width="1.0" stroke-linejoin="round" fill-opacity="0.14"/>
<circle cx="378.0" cy="442.0" r="220.0" fill="none" stroke="#6f6a64" stroke-width="1.3"/>
<line x1="378.0" y1="442.0" x2="533.6" y2="286.4" stroke="#8d8780" stroke-width="0.8" stroke-dasharray="4 4"/>
<line x1="378.0" y1="442.0" x2="533.6" y2="597.6" stroke="#8d8780" stroke-width="0.8" stroke-dasharray="4 4"/>
<line x1="378.0" y1="442.0" x2="222.4" y2="597.6" stroke="#8d8780" stroke-width="0.8" stroke-dasharray="4 4"/>
<line x1="378.0" y1="442.0" x2="222.4" y2="286.4" stroke="#8d8780" stroke-width="0.8" stroke-dasharray="4 4"/>
<text x="608.0" y="436.0" font-size="13" fill="#8a5a17" font-weight="700">EAST</text>
<text x="608.0" y="452.0" font-size="11" fill="#8a5a17">45°–135° from</text>
<text x="608.0" y="466.0" font-size="11" fill="#8a5a17">the centre</text>
<path d="M513.2,405.8 L414.2,577.2 L242.8,478.2 L341.8,306.8 Z" fill="#f1ebe0" stroke="#7d7264" stroke-width="11" stroke-linejoin="miter"/>
<circle cx="378.0" cy="442.0" r="2.5" fill="#2a2420" stroke="none" stroke-width="1.0"/>
<rect x="278.0" y="433.0" width="189.4" height="35.0" fill="#ffffff" stroke="none" stroke-width="1.0" rx="3" fill-opacity="0.9"/>
<text x="282.0" y="446.0" font-size="12" fill="#2a2420" font-weight="700">guard post · המשמרה</text>
<text x="282.0" y="461.0" font-size="12" fill="#2a2420">Milik: guardhouse, fortress</text>
<path d="M505.2296156804696,397.7653336856471 L521.2296156804696,413.7653336856471 M521.2296156804696,397.7653336856471 L505.2296156804696,413.7653336856471" fill="none" stroke="#b33a2a" stroke-width="2" stroke-linejoin="round"/>
<rect x="539.2" y="280.8" width="142.4" height="50.0" fill="#ffffff" stroke="none" stroke-width="1.0" rx="3" fill-opacity="0.9"/>
<text x="543.2" y="293.8" font-size="12" fill="#8e2e22" font-weight="700">the eastern corner</text>
<text x="543.2" y="308.8" font-size="12" fill="#8e2e22">22 talents</text>
<text x="543.2" y="323.8" font-size="12" fill="#8e2e22">dig 7 cubits ≈ 3.5 m</text>
<line x1="519.2" y1="397.8" x2="543.2" y2="325.8" stroke="#5a524a" stroke-width="0.8"/>
<circle cx="414.2" cy="577.2" r="3.0" fill="#7d7264" stroke="none" stroke-width="1.0"/>
<circle cx="242.8" cy="478.2" r="3.0" fill="#7d7264" stroke="none" stroke-width="1.0"/>
<circle cx="341.8" cy="306.8" r="3.0" fill="#7d7264" stroke="none" stroke-width="1.0"/>
<path d="M822,196 L830,228 L822,222 L814,228 Z" fill="#2a2420" stroke="none" stroke-width="1.0" stroke-linejoin="round"/>
<text x="822.0" y="190.0" font-size="14" fill="#2a2420" font-weight="700" text-anchor="middle">N</text>
<text x="546.4" y="624.4" font-size="10.5" fill="#8d8780">quarters only: no distance is given</text>
<rect x="58.0" y="688.0" width="300.0" height="186.0" fill="#fbfaf7" stroke="#d6cfc4" stroke-width="1" rx="4"/>
<text x="68.0" y="706.0" font-size="11.5" fill="#2a2420" font-weight="700">Why the building is turned</text>
<path d="M128.0,790.0 L167.6,750.4 A56,56 0 0,1 167.6,829.6 Z" fill="#c98a2e" stroke="none" stroke-width="1.0" stroke-linejoin="round" fill-opacity="0.14"/>
<circle cx="128.0" cy="790.0" r="56.0" fill="none" stroke="#6f6a64" stroke-width="1.3"/>
<line x1="128.0" y1="790.0" x2="167.6" y2="750.4" stroke="#8d8780" stroke-width="0.8" stroke-dasharray="4 4"/>
<line x1="128.0" y1="790.0" x2="167.6" y2="829.6" stroke="#8d8780" stroke-width="0.8" stroke-dasharray="4 4"/>
<line x1="128.0" y1="790.0" x2="88.4" y2="829.6" stroke="#8d8780" stroke-width="0.8" stroke-dasharray="4 4"/>
<line x1="128.0" y1="790.0" x2="88.4" y2="750.4" stroke="#8d8780" stroke-width="0.8" stroke-dasharray="4 4"/>
<path d="M152.0,766.0 L152.0,814.0 L104.0,814.0 L104.0,766.0 Z" fill="#f1ebe0" stroke="#7d7264" stroke-width="4" stroke-linejoin="miter"/>
<circle cx="152.0" cy="766.0" r="7.0" fill="#ffffff" stroke="#b33a2a" stroke-width="1.2" stroke-dasharray="2 2"/>
<text x="152.0" y="770.0" font-size="10" fill="#8e2e22" font-weight="700" text-anchor="middle">?</text>
<circle cx="152.0" cy="814.0" r="7.0" fill="#ffffff" stroke="#b33a2a" stroke-width="1.2" stroke-dasharray="2 2"/>
<text x="152.0" y="818.0" font-size="10" fill="#8e2e22" font-weight="700" text-anchor="middle">?</text>
<text x="200.0" y="740.0" font-size="10.5" fill="#5a524a">Square to the compass, the</text>
<text x="200.0" y="753.1" font-size="10.5" fill="#5a524a">NE and SE corners sit on the</text>
<text x="200.0" y="766.2" font-size="10.5" fill="#5a524a">quarter lines: neither is</text>
<text x="200.0" y="779.4" font-size="10.5" fill="#5a524a">“the eastern one”. Any turn</text>
<text x="200.0" y="792.5" font-size="10.5" fill="#5a524a">between 0° and 90° leaves</text>
<text x="200.0" y="805.6" font-size="10.5" fill="#5a524a">one corner in the east quarter.</text>
<rect x="522.0" y="688.0" width="330.0" height="186.0" fill="#fbfaf7" stroke="#d6cfc4" stroke-width="1" rx="4"/>
<text x="532.0" y="706.0" font-size="11.5" fill="#2a2420" font-weight="700">Section under the corner (not plan scale)</text>
<rect x="532.0" y="748.0" width="200.0" height="116.0" fill="url(#earth)" stroke="none" stroke-width="1.0"/>
<line x1="532.0" y1="748.0" x2="732.0" y2="748.0" stroke="#7d7264" stroke-width="1.4"/>
<rect x="562.0" y="726.0" width="52.0" height="34.0" fill="#d9d0bf" stroke="#7d7264" stroke-width="1.2"/>
<text x="620.0" y="740.0" font-size="10.5" fill="#5a524a">the corner</text>
<rect x="593.0" y="760.0" width="18.0" height="92.0" fill="none" stroke="#8e2e22" stroke-width="1.1" stroke-dasharray="3 2"/>
<path d="M597,847 L607,857 M607,847 L597,857" fill="none" stroke="#b33a2a" stroke-width="2" stroke-linejoin="round"/>
<line x1="672.0" y1="748.0" x2="672.0" y2="852.0" stroke="#8e2e22" stroke-width="1.2"/>
<line x1="677.0" y1="748.0" x2="667.0" y2="748.0" stroke="#8e2e22" stroke-width="1.2"/>
<line x1="677.0" y1="852.0" x2="667.0" y2="852.0" stroke="#8e2e22" stroke-width="1.2"/>
<text x="662.0" y="800.0" font-size="11" fill="#8e2e22" font-weight="600" text-anchor="middle" transform="rotate(90.0 662.0 800.0)">7 cubits</text>
<line x1="611.0" y1="852.0" x2="676.0" y2="852.0" stroke="#b9b2a8" stroke-width="0.8" stroke-dasharray="3 3"/>
<text x="744.0" y="770.0" font-size="10.5" fill="#8e2e22">≈ 3.5 m, from</text>
<text x="744.0" y="783.1" font-size="10.5" fill="#8e2e22">ground level;</text>
<text x="744.0" y="796.2" font-size="10.5" fill="#8e2e22">the starting</text>
<text x="744.0" y="809.4" font-size="10.5" fill="#8e2e22">level is not</text>
<text x="744.0" y="822.5" font-size="10.5" fill="#8e2e22">stated.</text>
<rect x="890.0" y="100.0" width="470.0" height="276.0" fill="#ffffff" stroke="#d6cfc4" stroke-width="1.1" rx="6"/>
<text x="904.0" y="124.0" font-size="14" fill="#2a2420" font-weight="700">Drying place (Puech 2006, 2015)</text>
<text x="904.0" y="144.0" font-size="11.5" fill="#5a524a">Puech reads hmšṭḥ, a drying floor or room; “eastern” then goes</text>
<text x="904.0" y="160.0" font-size="11.5" fill="#5a524a">with the corner. The 2026 plate check leans this way, not decisively.</text>
<rect x="904.0" y="348.0" width="249.8" height="18.0" fill="#eeeae4" stroke="#a39b90" stroke-width="1" rx="9"/>
<text x="912.0" y="361.0" font-size="10.5" fill="#5f574e" font-weight="600">Alternative reading · plates lean to it</text>
<path d="M1018.0,256.0 L1077.4,196.6 A84,84 0 0,1 1077.4,315.4 Z" fill="#c98a2e" stroke="none" stroke-width="1.0" stroke-linejoin="round" fill-opacity="0.14"/>
<circle cx="1018.0" cy="256.0" r="84.0" fill="none" stroke="#6f6a64" stroke-width="1.3"/>
<line x1="1018.0" y1="256.0" x2="1077.4" y2="196.6" stroke="#8d8780" stroke-width="0.8" stroke-dasharray="4 4"/>
<line x1="1018.0" y1="256.0" x2="1077.4" y2="315.4" stroke="#8d8780" stroke-width="0.8" stroke-dasharray="4 4"/>
<line x1="1018.0" y1="256.0" x2="958.6" y2="315.4" stroke="#8d8780" stroke-width="0.8" stroke-dasharray="4 4"/>
<line x1="1018.0" y1="256.0" x2="958.6" y2="196.6" stroke="#8d8780" stroke-width="0.8" stroke-dasharray="4 4"/>
<path d="M1072.1,241.5 L1032.5,310.1 L963.9,270.5 L1003.5,201.9 Z" fill="url(#earth)" stroke="#b39a6e" stroke-width="2" stroke-linejoin="miter"/>
<line x1="1062.2" y1="258.7" x2="993.6" y2="219.1" stroke="#c9b897" stroke-width="0.8"/>
<line x1="1052.3" y1="275.8" x2="983.7" y2="236.2" stroke="#c9b897" stroke-width="0.8"/>
<line x1="1042.4" y1="292.9" x2="973.8" y2="253.3" stroke="#c9b897" stroke-width="0.8"/>
<path d="M1066.091846272188,235.50613347425883 L1078.091846272188,247.50613347425883 M1078.091846272188,235.50613347425883 L1066.091846272188,247.50613347425883" fill="none" stroke="#b33a2a" stroke-width="2" stroke-linejoin="round"/>
<text x="1128.0" y="210.0" font-size="11" fill="#5a524a" font-weight="700">drying floor or room · המשטח</text>
<text x="1128.0" y="223.8" font-size="11" fill="#5a524a">eastern corner: dig 7 cubits</text>
<text x="1128.0" y="237.5" font-size="11" fill="#5a524a">no such installation is reported</text>
<text x="1128.0" y="251.2" font-size="11" fill="#5a524a">at the summit fortress</text>
<rect x="890.0" y="386.0" width="470.0" height="252.0" fill="#ffffff" stroke="#d6cfc4" stroke-width="1.1" rx="6"/>
<text x="904.0" y="410.0" font-size="14" fill="#2a2420" font-weight="700">A corner of the eastern guard post</text>
<text x="904.0" y="430.0" font-size="11.5" fill="#5a524a">Lefkovits's second syntax: “eastern” describes the post, so there</text>
<text x="904.0" y="446.0" font-size="11.5" fill="#5a524a">are several posts. Which corner of the eastern one is not fixed.</text>
<rect x="904.0" y="610.0" width="225.0" height="18.0" fill="#eeeae4" stroke="#a39b90" stroke-width="1" rx="9"/>
<text x="912.0" y="623.0" font-size="10.5" fill="#5f574e" font-weight="600">Alternative syntax (Lefkovits 2000)</text>
<path d="M992.0,504.0 L992.0,552.0 L944.0,552.0 L944.0,504.0 Z" fill="#f1ebe0" stroke="#7d7264" stroke-width="5" stroke-linejoin="miter"/>
<text x="968.0" y="572.0" font-size="10.5" fill="#5a524a" text-anchor="middle">western post</text>
<path d="M1152.0,504.0 L1152.0,552.0 L1104.0,552.0 L1104.0,504.0 Z" fill="#f1ebe0" stroke="#7d7264" stroke-width="6" stroke-linejoin="miter"/>
<text x="1128.0" y="572.0" font-size="10.5" fill="#2a2420" font-weight="700" text-anchor="middle">the eastern post</text>
<circle cx="1152.0" cy="504.0" r="7.0" fill="#ffffff" stroke="#b33a2a" stroke-width="1.2" stroke-dasharray="2 2"/>
<text x="1152.0" y="508.0" font-size="10" fill="#8e2e22" font-weight="700" text-anchor="middle">?</text>
<circle cx="1152.0" cy="552.0" r="7.0" fill="#ffffff" stroke="#b33a2a" stroke-width="1.2" stroke-dasharray="2 2"/>
<text x="1152.0" y="556.0" font-size="10" fill="#8e2e22" font-weight="700" text-anchor="middle">?</text>
<circle cx="1104.0" cy="552.0" r="7.0" fill="#ffffff" stroke="#b33a2a" stroke-width="1.2" stroke-dasharray="2 2"/>
<text x="1104.0" y="556.0" font-size="10" fill="#8e2e22" font-weight="700" text-anchor="middle">?</text>
<circle cx="1104.0" cy="504.0" r="7.0" fill="#ffffff" stroke="#b33a2a" stroke-width="1.2" stroke-dasharray="2 2"/>
<text x="1104.0" y="508.0" font-size="10" fill="#8e2e22" font-weight="700" text-anchor="middle">?</text>
<line x1="1008.0" y1="528.0" x2="1084.0" y2="528.0" stroke="#5a524a" stroke-width="0.9" stroke-dasharray="4 3" marker-end="url(#ah-ink)"/>
<text x="1188.0" y="512.0" font-size="10.5" fill="#8e2e22" font-weight="700">deposit under one of</text>
<text x="1188.0" y="525.1" font-size="10.5" fill="#8e2e22">its corners; the text</text>
<text x="1188.0" y="538.2" font-size="10.5" fill="#8e2e22">does not say which</text>
<rect x="890.0" y="648.0" width="470.0" height="242.0" fill="#ffffff" stroke="#d6cfc4" stroke-width="1.1" rx="6"/>
<text x="904.0" y="672.0" font-size="14" fill="#2a2420" font-weight="700">Where at Doq? (Q24)</text>
<rect x="904.0" y="862.0" width="94.8" height="18.0" fill="#eeeae4" stroke="#a39b90" stroke-width="1" rx="9"/>
<text x="912.0" y="875.0" font-size="10.5" fill="#5f574e" font-weight="600">Placement only</text>
<circle cx="912.0" cy="690.0" r="2.2" fill="#5a524a" stroke="none" stroke-width="1.0"/>
<text x="922.0" y="694.0" font-size="11.5" fill="#5a524a">Milik 1962; Eshel 2002; Puech 2015: the Hasmonean fortress on the</text>
<text x="922.0" y="709.2" font-size="11.5" fill="#5a524a">summit of Jebel Qarantal.</text>
<circle cx="912.0" cy="726.4" r="2.2" fill="#5a524a" stroke="none" stroke-width="1.0"/>
<text x="922.0" y="730.4" font-size="11.5" fill="#5a524a">Puech 2006: Doq north-west of Jericho, the spring area of ʿAin Duk.</text>
<circle cx="912.0" cy="747.5" r="2.2" fill="#5a524a" stroke="none" stroke-width="1.0"/>
<text x="922.0" y="751.5" font-size="11.5" fill="#5a524a">SWP: Kh. Abu Lahm.</text>
<text x="908.0" y="776.7" font-size="11.5" fill="#2a2420">These move the building on the map; the plan of the corner is the same.</text>
<rect x="40.0" y="910.0" width="1320.0" height="174.0" fill="#ffffff" stroke="#d6cfc4" stroke-width="1.1" rx="6"/>
<text x="60.0" y="936.0" font-size="13" fill="#2a2420" font-weight="700">Text (VII 11–13)</text>
<text x="60.0" y="953.0" font-size="11.5" fill="#5a524a">“At Doq, under the corner of the guard post, the eastern one, dig seven cubits: 22 talents.”</text>
<text x="60.0" y="976.2" font-size="13" fill="#2a2420" font-weight="700">What the plan assumes</text>
<text x="60.0" y="993.2" font-size="11.5" fill="#5a524a">“The eastern one” goes with the corner: the corner lying in the east quarter (45°–135°) seen from the</text>
<text x="60.0" y="1008.4" font-size="11.5" fill="#5a524a">building's centre. Size, shape and turn of the building are not given; it is drawn turned 30°. The</text>
<text x="60.0" y="1023.5" font-size="11.5" fill="#5a524a">seven cubits are dug under that corner.</text>
<text x="700.0" y="936.0" font-size="13" fill="#2a2420" font-weight="700">Project placement</text>
<text x="700.0" y="953.0" font-size="11.5" fill="#5a524a">Best-supported, medium. Doq: Jebel Qarantal (preferred, medium); ʿAin Duk springs (possible, low).</text>
<text x="700.0" y="968.2" font-size="11.5" fill="#5a524a">The surviving name does not tell summit from spring (Q24); the exact installation and corner are</text>
<text x="700.0" y="983.4" font-size="11.5" fill="#5a524a">unidentified.</text>
<text x="700.0" y="1006.5" font-size="13" fill="#2a2420" font-weight="700">What the records show</text>
<text x="700.0" y="1023.5" font-size="11.5" fill="#5a524a">A Hasmonean fortress with an aqueduct and rock-cut cisterns is reported on the summit; on Puech's</text>
<text x="700.0" y="1038.7" font-size="11.5" fill="#5a524a">“drying room” no such installation is reported (phase5_assessments.csv). The plates lean to hmšṭḥ,</text>
<text x="700.0" y="1053.9" font-size="11.5" fill="#5a524a">not decisively (feature_constraints.csv).</text>
</svg>
