<svg xmlns="http://www.w3.org/2000/svg" viewBox="0 0 1400 1000" width="1400" height="1000" font-family="Helvetica Neue, Helvetica, Arial, DejaVu Sans, sans-serif">
<title>Copper Scroll entry 5: the pit of the foundry(?) of Manos</title>
<defs>
 <marker id="ah-ink" viewBox="0 0 10 10" refX="8" refY="5" markerWidth="6" markerHeight="6" orient="auto-start-reverse"><path d="M0,0 L10,5 L0,10 z" fill="#2a2420"/></marker>
 <marker id="ah-ochre" viewBox="0 0 10 10" refX="8" refY="5" markerWidth="6" markerHeight="6" orient="auto-start-reverse"><path d="M0,0 L10,5 L0,10 z" fill="#8a5a17"/></marker>
 <marker id="ah-blue" viewBox="0 0 10 10" refX="8" refY="5" markerWidth="6" markerHeight="6" orient="auto-start-reverse"><path d="M0,0 L10,5 L0,10 z" fill="#245b82"/></marker>
 <marker id="ah-red" viewBox="0 0 10 10" refX="8" refY="5" markerWidth="6" markerHeight="6" orient="auto-start-reverse"><path d="M0,0 L10,5 L0,10 z" fill="#8e2e22"/></marker>
 <pattern id="hatch" width="4" height="4" patternUnits="userSpaceOnUse" patternTransform="rotate(45)"><rect width="4" height="4" fill="#efe3cf"/><line x1="0" y1="0" x2="0" y2="4" stroke="#8a5a17" stroke-width="1.2"/></pattern>
 <pattern id="rockfill" width="8" height="8" patternUnits="userSpaceOnUse"><rect width="8" height="8" fill="#e7dfd0"/><circle cx="2" cy="2" r="0.8" fill="#a49a8b"/><circle cx="6" cy="6" r="0.6" fill="#a49a8b"/></pattern>
 <pattern id="field" width="10" height="10" patternUnits="userSpaceOnUse"><rect width="10" height="10" fill="#eef1e4"/><line x1="0" y1="5" x2="10" y2="5" stroke="#b9c4a0" stroke-width="0.8"/></pattern>
 <pattern id="earth" width="6" height="6" patternUnits="userSpaceOnUse"><rect width="6" height="6" fill="#efe6d6"/><circle cx="3" cy="3" r="0.9" fill="#c9b897"/></pattern>
</defs>
<rect width="1400" height="1000" fill="#fbfaf7"/>
<text x="40.0" y="48.0" font-size="24" fill="#2a2420" font-weight="700">Entry 5 (I 13–15) — the pit of the foundry(?) of Manos</text>
<text x="40.0" y="74.0" font-size="14.5" fill="#5a524a">Schematic plan and section. The text gives no compass direction, so the orientation is arbitrary. Not a reconstruction of any real site.</text>
<rect x="40.0" y="100.0" width="830.0" height="710.0" fill="#ffffff" stroke="#d6cfc4" stroke-width="1.1" rx="6"/>
<text x="54.0" y="124.0" font-size="14" fill="#2a2420" font-weight="700">Project text: the pit of the foundry(?) of Manos</text>
<text x="54.0" y="144.0" font-size="11.5" fill="#5a524a">Milik's letters, as in the text shown. “Left” is the left hand of someone going down;</text>
<text x="54.0" y="160.0" font-size="11.5" fill="#5a524a">the three cubits are measured up from the pit floor. Pit size and depth are not given.</text>
<rect x="54.0" y="782.0" width="367.6" height="18.0" fill="#e5efe2" stroke="#6f9a63" stroke-width="1" rx="9"/>
<text x="62.0" y="795.0" font-size="10.5" fill="#2f5a26" font-weight="600">Project reading (Milik's letters; the files do not choose)</text>
<text x="60.0" y="196.0" font-size="12" fill="#2a2420" font-weight="700">Plan (orientation arbitrary)</text>
<rect x="70.0" y="230.0" width="350.0" height="430.0" fill="#f4efe6" stroke="none" stroke-width="1.0"/>
<path d="M70.0,230.0 L420.0,230.0 L420.0,660.0 L70.0,660.0 L70.0,230.0" fill="none" stroke="#7d7264" stroke-width="6" stroke-linejoin="miter"/>
<text x="84.0" y="254.0" font-size="12" fill="#2a2420" font-weight="700">foundry(?) · המעבא</text>
<text x="84.0" y="269.0" font-size="10.5" fill="#5a524a" font-style="italic">Milik's reading; the building's plan is not given</text>
<rect x="120.0" y="310.0" width="250.0" height="250.0" fill="#d8ccb6" stroke="#3f3226" stroke-width="2.6"/>
<text x="362.0" y="328.0" font-size="12" fill="#3f3226" font-weight="700" text-anchor="end">pit</text>
<text x="362.0" y="342.0" font-size="10.5" fill="#3f3226" text-anchor="end" font-style="italic">floor below</text>
<rect x="304.0" y="430.0" width="44.0" height="14.4" fill="#e7dfd0" stroke="#7d7264" stroke-width="0.9"/>
<rect x="304.0" y="444.4" width="44.0" height="14.4" fill="#e7dfd0" stroke="#7d7264" stroke-width="0.9"/>
<rect x="304.0" y="458.9" width="44.0" height="14.4" fill="#e7dfd0" stroke="#7d7264" stroke-width="0.9"/>
<rect x="304.0" y="473.3" width="44.0" height="14.4" fill="#e7dfd0" stroke="#7d7264" stroke-width="0.9"/>
<rect x="304.0" y="487.8" width="44.0" height="14.4" fill="#e7dfd0" stroke="#7d7264" stroke-width="0.9"/>
<rect x="304.0" y="502.2" width="44.0" height="14.4" fill="#e7dfd0" stroke="#7d7264" stroke-width="0.9"/>
<rect x="304.0" y="516.7" width="44.0" height="14.4" fill="#e7dfd0" stroke="#7d7264" stroke-width="0.9"/>
<rect x="304.0" y="531.1" width="44.0" height="14.4" fill="#e7dfd0" stroke="#7d7264" stroke-width="0.9"/>
<rect x="304.0" y="545.6" width="44.0" height="14.4" fill="#e7dfd0" stroke="#7d7264" stroke-width="0.9"/>
<line x1="326.0" y1="600.0" x2="326.0" y2="414.0" stroke="#2a2420" stroke-width="1.6" marker-end="url(#ah-ink)"/>
<text x="312.0" y="584.0" font-size="11.5" fill="#2a2420" font-weight="700" text-anchor="end">going down · בירד</text>
<text x="312.0" y="598.4" font-size="11.5" fill="#2a2420" text-anchor="end">way down: steps assumed</text>
<path d="M326,414 Q326,380 286,380 L142,380" fill="none" stroke="#2a2420" stroke-width="1.6" stroke-linejoin="round" marker-end="url(#ah-ink)"/>
<text x="230.0" y="370.0" font-size="11.5" fill="#2a2420" font-weight="700" text-anchor="middle">to the left · אל סמל</text>
<line x1="120.0" y1="318.0" x2="120.0" y2="552.0" stroke="#b33a2a" stroke-width="3" opacity="0.5"/>
<path d="M120,374 L132,386 M132,374 L120,386" fill="none" stroke="#b33a2a" stroke-width="2" stroke-linejoin="round"/>
<line x1="128.0" y1="390.0" x2="144.0" y2="438.0" stroke="#8e2e22" stroke-width="0.8"/>
<text x="134.0" y="454.0" font-size="11.5" fill="#8e2e22" font-weight="700">× silver, 40 talents</text>
<text x="134.0" y="468.4" font-size="11.5" fill="#8e2e22">in the left-hand wall,</text>
<text x="134.0" y="482.8" font-size="11.5" fill="#8e2e22">3 cubits above the floor</text>
<text x="112.0" y="485.0" font-size="10.5" fill="#8e2e22" font-weight="600" text-anchor="middle" transform="rotate(-90 112.0 485.0)">left-hand wall</text>
<text x="84.0" y="646.0" font-size="11" fill="#5a524a">“of Manos” · מנס: whose foundry is not known</text>
<text x="450.0" y="196.0" font-size="12" fill="#2a2420" font-weight="700">Section looking at the left-hand wall</text>
<rect x="450.0" y="270.0" width="40.0" height="430.0" fill="url(#rockfill)" stroke="none" stroke-width="1.0"/>
<rect x="806.0" y="270.0" width="40.0" height="430.0" fill="url(#rockfill)" stroke="none" stroke-width="1.0"/>
<rect x="450.0" y="660.0" width="396.0" height="40.0" fill="url(#rockfill)" stroke="none" stroke-width="1.0"/>
<rect x="490.0" y="270.0" width="316.0" height="390.0" fill="#efe8db" stroke="none" stroke-width="1.0"/>
<line x1="490.0" y1="270.0" x2="490.0" y2="660.0" stroke="#3f3226" stroke-width="2.4"/>
<line x1="806.0" y1="270.0" x2="806.0" y2="660.0" stroke="#3f3226" stroke-width="2.4"/>
<line x1="490.0" y1="660.0" x2="806.0" y2="660.0" stroke="#3f3226" stroke-width="2.4"/>
<line x1="450.0" y1="270.0" x2="490.0" y2="270.0" stroke="#7d7264" stroke-width="2.5"/>
<line x1="806.0" y1="270.0" x2="846.0" y2="270.0" stroke="#7d7264" stroke-width="2.5"/>
<text x="450.0" y="262.0" font-size="10.5" fill="#5a524a" font-style="italic">ground</text>
<path d="M806.0,270.0 L794.0,270.0 L794.0,325.7 L782.0,325.7 L782.0,381.4 L770.0,381.4 L770.0,437.1 L758.0,437.1 L758.0,492.9 L746.0,492.9 L746.0,548.6 L734.0,548.6 L734.0,604.3 L722.0,604.3 L722.0,660.0 L806.0,660.0 L806.0,270.0 Z" fill="#e7dfd0" stroke="#7d7264" stroke-width="1" stroke-linejoin="round"/>
<line x1="710.0" y1="310.0" x2="710.0" y2="380.0" stroke="#2a2420" stroke-width="1.3" marker-end="url(#ah-ink)"/>
<text x="702.0" y="324.0" font-size="11" fill="#2a2420" font-weight="700" text-anchor="end">going</text>
<text x="702.0" y="337.8" font-size="11" fill="#2a2420" text-anchor="end">down</text>
<rect x="448.0" y="414.0" width="400.0" height="12.0" fill="#ffffff" stroke="none" stroke-width="1.0"/>
<path d="M450.0,411.0 L462.0,417.0 L474.0,411.0 L486.0,417.0 L498.0,411.0 L510.0,417.0 L522.0,411.0 L534.0,417.0 L546.0,411.0 L558.0,417.0 L570.0,411.0 L582.0,417.0 L594.0,411.0 L606.0,417.0 L618.0,411.0 L630.0,417.0 L642.0,411.0 L654.0,417.0 L666.0,411.0 L678.0,417.0 L690.0,411.0 L702.0,417.0 L714.0,411.0 L726.0,417.0 L738.0,411.0 L750.0,417.0 L762.0,411.0 L774.0,417.0 L786.0,411.0 L798.0,417.0 L810.0,411.0 L822.0,417.0 L834.0,411.0 L846.0,417.0" fill="none" stroke="#2a2420" stroke-width="0.9" stroke-linejoin="round"/>
<path d="M450.0,423.0 L462.0,429.0 L474.0,423.0 L486.0,429.0 L498.0,423.0 L510.0,429.0 L522.0,423.0 L534.0,429.0 L546.0,423.0 L558.0,429.0 L570.0,423.0 L582.0,429.0 L594.0,423.0 L606.0,429.0 L618.0,423.0 L630.0,429.0 L642.0,423.0 L654.0,429.0 L666.0,423.0 L678.0,429.0 L690.0,423.0 L702.0,429.0 L714.0,423.0 L726.0,429.0 L738.0,423.0 L750.0,429.0 L762.0,423.0 L774.0,429.0 L786.0,423.0 L798.0,429.0 L810.0,423.0 L822.0,429.0 L834.0,423.0 L846.0,429.0" fill="none" stroke="#2a2420" stroke-width="0.9" stroke-linejoin="round"/>
<text x="500.0" y="446.0" font-size="10.5" fill="#8d8780" font-style="italic">depth of the pit not given</text>
<path d="M553,533 L567,547 M567,533 L553,547" fill="none" stroke="#b33a2a" stroke-width="2" stroke-linejoin="round"/>
<line x1="526.0" y1="660.0" x2="526.0" y2="540.0" stroke="#8e2e22" stroke-width="1.2"/>
<line x1="521.0" y1="660.0" x2="531.0" y2="660.0" stroke="#8e2e22" stroke-width="1.2"/>
<line x1="521.0" y1="540.0" x2="531.0" y2="540.0" stroke="#8e2e22" stroke-width="1.2"/>
<text x="536.0" y="600.0" font-size="11" fill="#8e2e22" font-weight="600" text-anchor="middle" transform="rotate(-90.0 536.0 600.0)">3 cubits ≈ 1.5 m</text>
<line x1="520.0" y1="540.0" x2="552.0" y2="540.0" stroke="#b9b2a8" stroke-width="0.8" stroke-dasharray="3 3"/>
<text x="574.0" y="544.0" font-size="11.5" fill="#8e2e22" font-weight="700">× silver, 40 talents</text>
<text x="574.0" y="558.4" font-size="11.5" fill="#8e2e22">3 cubits up from the floor</text>
<text x="574.0" y="650.0" font-size="11" fill="#3f3226" font-weight="700">pit floor · הקרקע</text>
<rect x="890.0" y="100.0" width="470.0" height="230.0" fill="#ffffff" stroke="#d6cfc4" stroke-width="1.1" rx="6"/>
<text x="904.0" y="124.0" font-size="14" fill="#2a2420" font-weight="700">Variant: a spiral staircase · המסבא</text>
<text x="904.0" y="144.0" font-size="11.5" fill="#5a524a">Puech reads samekh (“graphically certain”), with Høgenhaven;</text>
<text x="904.0" y="160.0" font-size="11.5" fill="#5a524a">Kloner's parallels: cut down in a pit, or inside a tower.</text>
<rect x="904.0" y="302.0" width="349.0" height="18.0" fill="#eeeae4" stroke="#a39b90" stroke-width="1" rx="9"/>
<text x="912.0" y="315.0" font-size="10.5" fill="#5f574e" font-weight="600">Alternative reading (Puech); the atlas title follows it</text>
<circle cx="958.0" cy="233.0" r="44.0" fill="url(#rockfill)" stroke="none" stroke-width="1.0"/>
<circle cx="958.0" cy="233.0" r="34.0" fill="#e7dfd0" stroke="#7d7264" stroke-width="1.4"/>
<line x1="958.0" y1="223.5" x2="958.0" y2="199.0" stroke="#7d7264" stroke-width="0.8"/>
<line x1="962.8" y1="224.8" x2="975.0" y2="203.6" stroke="#7d7264" stroke-width="0.8"/>
<line x1="966.2" y1="228.2" x2="987.4" y2="216.0" stroke="#7d7264" stroke-width="0.8"/>
<line x1="967.5" y1="233.0" x2="992.0" y2="233.0" stroke="#7d7264" stroke-width="0.8"/>
<line x1="966.2" y1="237.8" x2="987.4" y2="250.0" stroke="#7d7264" stroke-width="0.8"/>
<line x1="962.8" y1="241.2" x2="975.0" y2="262.4" stroke="#7d7264" stroke-width="0.8"/>
<line x1="958.0" y1="242.5" x2="958.0" y2="267.0" stroke="#7d7264" stroke-width="0.8"/>
<line x1="953.2" y1="241.2" x2="941.0" y2="262.4" stroke="#7d7264" stroke-width="0.8"/>
<line x1="949.8" y1="237.8" x2="928.6" y2="250.0" stroke="#7d7264" stroke-width="0.8"/>
<line x1="948.5" y1="233.0" x2="924.0" y2="233.0" stroke="#7d7264" stroke-width="0.8"/>
<line x1="949.8" y1="228.2" x2="928.6" y2="216.0" stroke="#7d7264" stroke-width="0.8"/>
<line x1="953.2" y1="224.8" x2="941.0" y2="203.6" stroke="#7d7264" stroke-width="0.8"/>
<circle cx="958.0" cy="233.0" r="9.5" fill="#3f3226" stroke="none" stroke-width="1.0"/>
<path d="M950.6,253.4 A21.8,21.8 0 1,0 936.6,236.8" fill="none" stroke="#2a2420" stroke-width="1.1" stroke-linejoin="round" marker-end="url(#ah-ink)"/>
<path d="M923,235.0 L931,243.0 M931,235.0 L923,243.0" fill="none" stroke="#b33a2a" stroke-width="2" stroke-linejoin="round"/>
<text x="958.0" y="294.0" font-size="10.5" fill="#5a524a" text-anchor="middle">cut down in a pit</text>
<rect x="1038.0" y="191.0" width="84.0" height="84.0" fill="#d9d0bf" stroke="#7d7264" stroke-width="4"/>
<circle cx="1080.0" cy="233.0" r="32.0" fill="#e7dfd0" stroke="#7d7264" stroke-width="1.4"/>
<line x1="1080.0" y1="224.0" x2="1080.0" y2="201.0" stroke="#7d7264" stroke-width="0.8"/>
<line x1="1084.5" y1="225.2" x2="1096.0" y2="205.3" stroke="#7d7264" stroke-width="0.8"/>
<line x1="1087.8" y1="228.5" x2="1107.7" y2="217.0" stroke="#7d7264" stroke-width="0.8"/>
<line x1="1089.0" y1="233.0" x2="1112.0" y2="233.0" stroke="#7d7264" stroke-width="0.8"/>
<line x1="1087.8" y1="237.5" x2="1107.7" y2="249.0" stroke="#7d7264" stroke-width="0.8"/>
<line x1="1084.5" y1="240.8" x2="1096.0" y2="260.7" stroke="#7d7264" stroke-width="0.8"/>
<line x1="1080.0" y1="242.0" x2="1080.0" y2="265.0" stroke="#7d7264" stroke-width="0.8"/>
<line x1="1075.5" y1="240.8" x2="1064.0" y2="260.7" stroke="#7d7264" stroke-width="0.8"/>
<line x1="1072.2" y1="237.5" x2="1052.3" y2="249.0" stroke="#7d7264" stroke-width="0.8"/>
<line x1="1071.0" y1="233.0" x2="1048.0" y2="233.0" stroke="#7d7264" stroke-width="0.8"/>
<line x1="1072.2" y1="228.5" x2="1052.3" y2="217.0" stroke="#7d7264" stroke-width="0.8"/>
<line x1="1075.5" y1="225.2" x2="1064.0" y2="205.3" stroke="#7d7264" stroke-width="0.8"/>
<circle cx="1080.0" cy="233.0" r="9.0" fill="#3f3226" stroke="none" stroke-width="1.0"/>
<path d="M1073.0,252.2 A20.5,20.5 0 1,0 1059.8,236.6" fill="none" stroke="#2a2420" stroke-width="1.1" stroke-linejoin="round" marker-end="url(#ah-ink)"/>
<path d="M1047,235.0 L1055,243.0 M1055,235.0 L1047,243.0" fill="none" stroke="#b33a2a" stroke-width="2" stroke-linejoin="round"/>
<text x="1080.0" y="294.0" font-size="10.5" fill="#5a524a" text-anchor="middle">in a tower</text>
<text x="1144.0" y="192.0" font-size="11" fill="#5a524a">The way down winds round a</text>
<text x="1144.0" y="205.8" font-size="11" fill="#5a524a">central pillar; × stays on the left,</text>
<text x="1144.0" y="219.5" font-size="11" fill="#5a524a">3 cubits above the bottom floor.</text>
<text x="1144.0" y="233.2" font-size="11" fill="#5a524a">Which way the stair turns is</text>
<text x="1144.0" y="247.0" font-size="11" fill="#5a524a">not given.</text>
<rect x="890.0" y="340.0" width="470.0" height="230.0" fill="#ffffff" stroke="#d6cfc4" stroke-width="1.1" rx="6"/>
<text x="904.0" y="364.0" font-size="14" fill="#2a2420" font-weight="700">Variant: a mine (Milik 1960)</text>
<text x="904.0" y="384.0" font-size="11.5" fill="#5a524a">Milik's first translation; DJD (1962) replaced it with</text>
<text x="904.0" y="400.0" font-size="11.5" fill="#5a524a">“foundry”. Section: a shaft down, a working at its foot.</text>
<rect x="904.0" y="542.0" width="163.0" height="18.0" fill="#f6e7e3" stroke="#c08a7f" stroke-width="1" rx="9"/>
<text x="912.0" y="555.0" font-size="10.5" fill="#7a2f22" font-weight="600">Earlier reading, replaced</text>
<rect x="904.0" y="424.0" width="220.0" height="104.0" fill="url(#rockfill)" stroke="none" stroke-width="1.0"/>
<line x1="904.0" y1="424.0" x2="1124.0" y2="424.0" stroke="#7d7264" stroke-width="2"/>
<rect x="1018.0" y="424.0" width="34.0" height="70.0" fill="#efe8db" stroke="#3f3226" stroke-width="1.4"/>
<rect x="938.0" y="490.0" width="114.0" height="34.0" fill="#efe8db" stroke="#3f3226" stroke-width="1.4"/>
<rect x="1019.0" y="488.0" width="32.0" height="6.0" fill="#efe8db" stroke="none" stroke-width="1.0"/>
<line x1="1035.0" y1="432.0" x2="1035.0" y2="502.0" stroke="#2a2420" stroke-width="1.1" marker-end="url(#ah-ink)"/>
<line x1="1026.0" y1="508.0" x2="958.0" y2="508.0" stroke="#2a2420" stroke-width="1.1" marker-end="url(#ah-ink)"/>
<path d="M940,494.0 L948,502.0 M948,494.0 L940,502.0" fill="none" stroke="#b33a2a" stroke-width="2" stroke-linejoin="round"/>
<text x="1058.0" y="448.0" font-size="10.5" fill="#5a524a" font-style="italic">shaft</text>
<text x="1144.0" y="432.0" font-size="11" fill="#5a524a">Going down, then left along the</text>
<text x="1144.0" y="445.8" font-size="11" fill="#5a524a">working; × in its left side.</text>
<text x="1144.0" y="459.5" font-size="11" fill="#5a524a">Same geometry as the main plan,</text>
<text x="1144.0" y="473.2" font-size="11" fill="#5a524a">with a mine in place of a</text>
<text x="1144.0" y="487.0" font-size="11" fill="#5a524a">foundry building.</text>
<rect x="890.0" y="580.0" width="470.0" height="230.0" fill="#ffffff" stroke="#d6cfc4" stroke-width="1.1" rx="6"/>
<text x="904.0" y="604.0" font-size="14" fill="#2a2420" font-weight="700">Of Manos · מנס</text>
<text x="904.0" y="624.0" font-size="11.5" fill="#5a524a">Lexicon: an unplaced name, meaning rated low. Atlas:</text>
<text x="904.0" y="640.0" font-size="11.5" fill="#5a524a">“a passage or refuge”, drawn here as an adjoining passage.</text>
<rect x="904.0" y="782.0" width="169.2" height="18.0" fill="#eeeae4" stroke="#a39b90" stroke-width="1" rx="9"/>
<text x="912.0" y="795.0" font-size="10.5" fill="#5f574e" font-weight="600">Atlas sense adds a passage</text>
<rect x="918.0" y="673.0" width="90.0" height="80.0" fill="#d8ccb6" stroke="#3f3226" stroke-width="2.2"/>
<text x="963.0" y="717.0" font-size="11" fill="#3f3226" font-weight="700" text-anchor="middle">pit</text>
<path d="M1008.0,703.0 L1098.0,703.0" fill="none" stroke="#3f3226" stroke-width="1.3" stroke-linejoin="round" stroke-dasharray="5 3"/>
<path d="M1008.0,723.0 L1098.0,723.0" fill="none" stroke="#3f3226" stroke-width="1.3" stroke-linejoin="round" stroke-dasharray="5 3"/>
<rect x="1098.0" y="691.0" width="30.0" height="44.0" fill="#efe8db" stroke="#3f3226" stroke-width="1.3" stroke-dasharray="5 3"/>
<text x="1070.0" y="751.0" font-size="10.5" fill="#3f3226" text-anchor="middle">passage or refuge?</text>
<path d="M918,689.0 L926,697.0 M926,689.0 L918,697.0" fill="none" stroke="#b33a2a" stroke-width="2" stroke-linejoin="round"/>
<text x="1150.0" y="672.0" font-size="11" fill="#5a524a">The lexicon compares מָנוֹס</text>
<text x="1150.0" y="685.8" font-size="11" fill="#5a524a">“refuge” and the name מנסיא;</text>
<text x="1150.0" y="699.5" font-size="11" fill="#5a524a">no ancient text outside the</text>
<text x="1150.0" y="713.2" font-size="11" fill="#5a524a">scroll names a place Manos.</text>
<rect x="40.0" y="830.0" width="1320.0" height="154.0" fill="#ffffff" stroke="#d6cfc4" stroke-width="1.1" rx="6"/>
<text x="60.0" y="856.0" font-size="13" fill="#2a2420" font-weight="700">Text (I 13–15)</text>
<text x="60.0" y="873.0" font-size="11.5" fill="#5a524a">“In the pit of the foundry(?) of Manos, going down to the left, three cubits up from the floor:</text>
<text x="60.0" y="888.2" font-size="11.5" fill="#5a524a">silver, 40 talents.”</text>
<text x="60.0" y="911.4" font-size="13" fill="#2a2420" font-weight="700">What the plan assumes</text>
<text x="60.0" y="928.4" font-size="11.5" fill="#5a524a">A pit inside a building (a foundry on Milik's letters), entered by a way down whose form is not</text>
<text x="60.0" y="943.5" font-size="11.5" fill="#5a524a">given. “To the left” is the left hand of someone going down; the deposit is in that wall, 3 cubits</text>
<text x="60.0" y="958.7" font-size="11.5" fill="#5a524a">(about 1.5 m) above the pit floor.</text>
<text x="700.0" y="856.0" font-size="13" fill="#2a2420" font-weight="700">Project placement</text>
<text x="700.0" y="873.0" font-size="11.5" fill="#5a524a">Possible only, low. Candidate: Temple enclosure (Temple Mount), possible, low. The atlas titles the</text>
<text x="700.0" y="888.2" font-size="11.5" fill="#5a524a">entry “The winding stair” (Puech's reading); no landmark has been identified.</text>
<text x="700.0" y="911.4" font-size="13" fill="#2a2420" font-weight="700">What the records show</text>
<text x="700.0" y="928.4" font-size="11.5" fill="#5a524a">The assessment sets Puech's “spiral staircase” against Milik's “foundry”; the spiral stair is known</text>
<text x="700.0" y="943.5" font-size="11.5" fill="#5a524a">only from texts (11QTemple, m. Middot 4:5), and Puech's parallels are not from the enclosure</text>
<text x="700.0" y="958.7" font-size="11.5" fill="#5a524a">(phase5_assessments.csv; phase5_reports.csv).</text>
</svg>
