<svg xmlns="http://www.w3.org/2000/svg" viewBox="0 0 1400 1080" width="1400" height="1080" font-family="Helvetica Neue, Helvetica, Arial, DejaVu Sans, sans-serif">
<title>Copper Scroll entry 20: the cairn in the valley of Sekakah</title>
<defs>
 <marker id="ah-ink" viewBox="0 0 10 10" refX="8" refY="5" markerWidth="6" markerHeight="6" orient="auto-start-reverse"><path d="M0,0 L10,5 L0,10 z" fill="#2a2420"/></marker>
 <marker id="ah-ochre" viewBox="0 0 10 10" refX="8" refY="5" markerWidth="6" markerHeight="6" orient="auto-start-reverse"><path d="M0,0 L10,5 L0,10 z" fill="#8a5a17"/></marker>
 <marker id="ah-blue" viewBox="0 0 10 10" refX="8" refY="5" markerWidth="6" markerHeight="6" orient="auto-start-reverse"><path d="M0,0 L10,5 L0,10 z" fill="#245b82"/></marker>
 <marker id="ah-red" viewBox="0 0 10 10" refX="8" refY="5" markerWidth="6" markerHeight="6" orient="auto-start-reverse"><path d="M0,0 L10,5 L0,10 z" fill="#8e2e22"/></marker>
 <pattern id="hatch" width="4" height="4" patternUnits="userSpaceOnUse" patternTransform="rotate(45)"><rect width="4" height="4" fill="#efe3cf"/><line x1="0" y1="0" x2="0" y2="4" stroke="#8a5a17" stroke-width="1.2"/></pattern>
 <pattern id="rockfill" width="8" height="8" patternUnits="userSpaceOnUse"><rect width="8" height="8" fill="#e7dfd0"/><circle cx="2" cy="2" r="0.8" fill="#a49a8b"/><circle cx="6" cy="6" r="0.6" fill="#a49a8b"/></pattern>
 <pattern id="field" width="10" height="10" patternUnits="userSpaceOnUse"><rect width="10" height="10" fill="#eef1e4"/><line x1="0" y1="5" x2="10" y2="5" stroke="#b9c4a0" stroke-width="0.8"/></pattern>
 <pattern id="earth" width="6" height="6" patternUnits="userSpaceOnUse"><rect width="6" height="6" fill="#efe6d6"/><circle cx="3" cy="3" r="0.9" fill="#c9b897"/></pattern>
</defs>
<rect width="1400" height="1080" fill="#fbfaf7"/>
<text x="40.0" y="48.0" font-size="24" fill="#2a2420" font-weight="700">Entry 20 (IV 13–14) — the cairn in the valley of Sekakah</text>
<text x="40.0" y="74.0" font-size="14.5" fill="#5a524a">Schematic plan, north up. One arrangement the text allows; not a reconstruction of any real site.</text>
<rect x="40.0" y="100.0" width="830.0" height="780.0" fill="#ffffff" stroke="#d6cfc4" stroke-width="1.1" rx="6"/>
<text x="54.0" y="124.0" font-size="14" fill="#2a2420" font-weight="700">Project reading: a cairn on the valley floor (Milik, Puech, Høgenhaven)</text>
<text x="54.0" y="144.0" font-size="11.5" fill="#5a524a">The text gives no direction, distance or neighbouring feature: only “the cairn of the valley”,</text>
<text x="54.0" y="160.0" font-size="11.5" fill="#5a524a">and a depth. The valley's course and the cairn's place on its floor are drawn arbitrarily.</text>
<path d="M58.0,240.0 L455.0,264.0 L852.0,249.6 L852.0,539.6 L455.0,554.0 L58.0,530.0 Z" fill="#f3eee3" stroke="none" stroke-width="1.0" stroke-linejoin="round"/>
<path d="M58.0,240.0 L455.0,264.0 L852.0,249.6" fill="none" stroke="#a49a8b" stroke-width="1.6" stroke-linejoin="round"/>
<line x1="62.5" y1="240.3" x2="62.1" y2="247.3" stroke="#a49a8b" stroke-width="0.9"/>
<line x1="71.5" y1="240.8" x2="71.1" y2="247.8" stroke="#a49a8b" stroke-width="0.9"/>
<line x1="80.6" y1="241.4" x2="80.1" y2="248.4" stroke="#a49a8b" stroke-width="0.9"/>
<line x1="89.6" y1="241.9" x2="89.2" y2="248.9" stroke="#a49a8b" stroke-width="0.9"/>
<line x1="98.6" y1="242.5" x2="98.2" y2="249.4" stroke="#a49a8b" stroke-width="0.9"/>
<line x1="107.6" y1="243.0" x2="107.2" y2="250.0" stroke="#a49a8b" stroke-width="0.9"/>
<line x1="116.6" y1="243.5" x2="116.2" y2="250.5" stroke="#a49a8b" stroke-width="0.9"/>
<line x1="125.7" y1="244.1" x2="125.2" y2="251.1" stroke="#a49a8b" stroke-width="0.9"/>
<line x1="134.7" y1="244.6" x2="134.3" y2="251.6" stroke="#a49a8b" stroke-width="0.9"/>
<line x1="143.7" y1="245.2" x2="143.3" y2="252.2" stroke="#a49a8b" stroke-width="0.9"/>
<line x1="152.7" y1="245.7" x2="152.3" y2="252.7" stroke="#a49a8b" stroke-width="0.9"/>
<line x1="161.8" y1="246.3" x2="161.3" y2="253.3" stroke="#a49a8b" stroke-width="0.9"/>
<line x1="170.8" y1="246.8" x2="170.4" y2="253.8" stroke="#a49a8b" stroke-width="0.9"/>
<line x1="179.8" y1="247.4" x2="179.4" y2="254.4" stroke="#a49a8b" stroke-width="0.9"/>
<line x1="188.8" y1="247.9" x2="188.4" y2="254.9" stroke="#a49a8b" stroke-width="0.9"/>
<line x1="197.9" y1="248.5" x2="197.4" y2="255.4" stroke="#a49a8b" stroke-width="0.9"/>
<line x1="206.9" y1="249.0" x2="206.5" y2="256.0" stroke="#a49a8b" stroke-width="0.9"/>
<line x1="215.9" y1="249.5" x2="215.5" y2="256.5" stroke="#a49a8b" stroke-width="0.9"/>
<line x1="224.9" y1="250.1" x2="224.5" y2="257.1" stroke="#a49a8b" stroke-width="0.9"/>
<line x1="233.9" y1="250.6" x2="233.5" y2="257.6" stroke="#a49a8b" stroke-width="0.9"/>
<line x1="243.0" y1="251.2" x2="242.5" y2="258.2" stroke="#a49a8b" stroke-width="0.9"/>
<line x1="252.0" y1="251.7" x2="251.6" y2="258.7" stroke="#a49a8b" stroke-width="0.9"/>
<line x1="261.0" y1="252.3" x2="260.6" y2="259.3" stroke="#a49a8b" stroke-width="0.9"/>
<line x1="270.0" y1="252.8" x2="269.6" y2="259.8" stroke="#a49a8b" stroke-width="0.9"/>
<line x1="279.1" y1="253.4" x2="278.6" y2="260.4" stroke="#a49a8b" stroke-width="0.9"/>
<line x1="288.1" y1="253.9" x2="287.7" y2="260.9" stroke="#a49a8b" stroke-width="0.9"/>
<line x1="297.1" y1="254.5" x2="296.7" y2="261.4" stroke="#a49a8b" stroke-width="0.9"/>
<line x1="306.1" y1="255.0" x2="305.7" y2="262.0" stroke="#a49a8b" stroke-width="0.9"/>
<line x1="315.1" y1="255.5" x2="314.7" y2="262.5" stroke="#a49a8b" stroke-width="0.9"/>
<line x1="324.2" y1="256.1" x2="323.7" y2="263.1" stroke="#a49a8b" stroke-width="0.9"/>
<line x1="333.2" y1="256.6" x2="332.8" y2="263.6" stroke="#a49a8b" stroke-width="0.9"/>
<line x1="342.2" y1="257.2" x2="341.8" y2="264.2" stroke="#a49a8b" stroke-width="0.9"/>
<line x1="351.2" y1="257.7" x2="350.8" y2="264.7" stroke="#a49a8b" stroke-width="0.9"/>
<line x1="360.3" y1="258.3" x2="359.8" y2="265.3" stroke="#a49a8b" stroke-width="0.9"/>
<line x1="369.3" y1="258.8" x2="368.9" y2="265.8" stroke="#a49a8b" stroke-width="0.9"/>
<line x1="378.3" y1="259.4" x2="377.9" y2="266.4" stroke="#a49a8b" stroke-width="0.9"/>
<line x1="387.3" y1="259.9" x2="386.9" y2="266.9" stroke="#a49a8b" stroke-width="0.9"/>
<line x1="396.4" y1="260.5" x2="395.9" y2="267.4" stroke="#a49a8b" stroke-width="0.9"/>
<line x1="405.4" y1="261.0" x2="405.0" y2="268.0" stroke="#a49a8b" stroke-width="0.9"/>
<line x1="414.4" y1="261.5" x2="414.0" y2="268.5" stroke="#a49a8b" stroke-width="0.9"/>
<line x1="423.4" y1="262.1" x2="423.0" y2="269.1" stroke="#a49a8b" stroke-width="0.9"/>
<line x1="432.4" y1="262.6" x2="432.0" y2="269.6" stroke="#a49a8b" stroke-width="0.9"/>
<line x1="441.5" y1="263.2" x2="441.0" y2="270.2" stroke="#a49a8b" stroke-width="0.9"/>
<line x1="450.5" y1="263.7" x2="450.1" y2="270.7" stroke="#a49a8b" stroke-width="0.9"/>
<line x1="459.5" y1="263.8" x2="459.8" y2="270.8" stroke="#a49a8b" stroke-width="0.9"/>
<line x1="468.5" y1="263.5" x2="468.8" y2="270.5" stroke="#a49a8b" stroke-width="0.9"/>
<line x1="477.6" y1="263.2" x2="477.8" y2="270.2" stroke="#a49a8b" stroke-width="0.9"/>
<line x1="486.6" y1="262.9" x2="486.8" y2="269.8" stroke="#a49a8b" stroke-width="0.9"/>
<line x1="495.6" y1="262.5" x2="495.9" y2="269.5" stroke="#a49a8b" stroke-width="0.9"/>
<line x1="504.6" y1="262.2" x2="504.9" y2="269.2" stroke="#a49a8b" stroke-width="0.9"/>
<line x1="513.6" y1="261.9" x2="513.9" y2="268.9" stroke="#a49a8b" stroke-width="0.9"/>
<line x1="522.7" y1="261.5" x2="522.9" y2="268.5" stroke="#a49a8b" stroke-width="0.9"/>
<line x1="531.7" y1="261.2" x2="531.9" y2="268.2" stroke="#a49a8b" stroke-width="0.9"/>
<line x1="540.7" y1="260.9" x2="541.0" y2="267.9" stroke="#a49a8b" stroke-width="0.9"/>
<line x1="549.7" y1="260.6" x2="550.0" y2="267.6" stroke="#a49a8b" stroke-width="0.9"/>
<line x1="558.8" y1="260.2" x2="559.0" y2="267.2" stroke="#a49a8b" stroke-width="0.9"/>
<line x1="567.8" y1="259.9" x2="568.0" y2="266.9" stroke="#a49a8b" stroke-width="0.9"/>
<line x1="576.8" y1="259.6" x2="577.1" y2="266.6" stroke="#a49a8b" stroke-width="0.9"/>
<line x1="585.8" y1="259.3" x2="586.1" y2="266.2" stroke="#a49a8b" stroke-width="0.9"/>
<line x1="594.9" y1="258.9" x2="595.1" y2="265.9" stroke="#a49a8b" stroke-width="0.9"/>
<line x1="603.9" y1="258.6" x2="604.1" y2="265.6" stroke="#a49a8b" stroke-width="0.9"/>
<line x1="612.9" y1="258.3" x2="613.2" y2="265.3" stroke="#a49a8b" stroke-width="0.9"/>
<line x1="621.9" y1="257.9" x2="622.2" y2="264.9" stroke="#a49a8b" stroke-width="0.9"/>
<line x1="630.9" y1="257.6" x2="631.2" y2="264.6" stroke="#a49a8b" stroke-width="0.9"/>
<line x1="640.0" y1="257.3" x2="640.2" y2="264.3" stroke="#a49a8b" stroke-width="0.9"/>
<line x1="649.0" y1="257.0" x2="649.2" y2="264.0" stroke="#a49a8b" stroke-width="0.9"/>
<line x1="658.0" y1="256.6" x2="658.3" y2="263.6" stroke="#a49a8b" stroke-width="0.9"/>
<line x1="667.0" y1="256.3" x2="667.3" y2="263.3" stroke="#a49a8b" stroke-width="0.9"/>
<line x1="676.1" y1="256.0" x2="676.3" y2="263.0" stroke="#a49a8b" stroke-width="0.9"/>
<line x1="685.1" y1="255.7" x2="685.3" y2="262.6" stroke="#a49a8b" stroke-width="0.9"/>
<line x1="694.1" y1="255.3" x2="694.4" y2="262.3" stroke="#a49a8b" stroke-width="0.9"/>
<line x1="703.1" y1="255.0" x2="703.4" y2="262.0" stroke="#a49a8b" stroke-width="0.9"/>
<line x1="712.1" y1="254.7" x2="712.4" y2="261.7" stroke="#a49a8b" stroke-width="0.9"/>
<line x1="721.2" y1="254.3" x2="721.4" y2="261.3" stroke="#a49a8b" stroke-width="0.9"/>
<line x1="730.2" y1="254.0" x2="730.4" y2="261.0" stroke="#a49a8b" stroke-width="0.9"/>
<line x1="739.2" y1="253.7" x2="739.5" y2="260.7" stroke="#a49a8b" stroke-width="0.9"/>
<line x1="748.2" y1="253.4" x2="748.5" y2="260.4" stroke="#a49a8b" stroke-width="0.9"/>
<line x1="757.3" y1="253.0" x2="757.5" y2="260.0" stroke="#a49a8b" stroke-width="0.9"/>
<line x1="766.3" y1="252.7" x2="766.5" y2="259.7" stroke="#a49a8b" stroke-width="0.9"/>
<line x1="775.3" y1="252.4" x2="775.6" y2="259.4" stroke="#a49a8b" stroke-width="0.9"/>
<line x1="784.3" y1="252.1" x2="784.6" y2="259.0" stroke="#a49a8b" stroke-width="0.9"/>
<line x1="793.4" y1="251.7" x2="793.6" y2="258.7" stroke="#a49a8b" stroke-width="0.9"/>
<line x1="802.4" y1="251.4" x2="802.6" y2="258.4" stroke="#a49a8b" stroke-width="0.9"/>
<line x1="811.4" y1="251.1" x2="811.7" y2="258.1" stroke="#a49a8b" stroke-width="0.9"/>
<line x1="820.4" y1="250.7" x2="820.7" y2="257.7" stroke="#a49a8b" stroke-width="0.9"/>
<line x1="829.4" y1="250.4" x2="829.7" y2="257.4" stroke="#a49a8b" stroke-width="0.9"/>
<line x1="838.5" y1="250.1" x2="838.7" y2="257.1" stroke="#a49a8b" stroke-width="0.9"/>
<line x1="847.5" y1="249.8" x2="847.7" y2="256.8" stroke="#a49a8b" stroke-width="0.9"/>
<path d="M852.0,539.6 L455.0,554.0 L58.0,530.0" fill="none" stroke="#a49a8b" stroke-width="1.6" stroke-linejoin="round"/>
<line x1="847.5" y1="539.8" x2="847.2" y2="532.8" stroke="#a49a8b" stroke-width="0.9"/>
<line x1="838.5" y1="540.1" x2="838.2" y2="533.1" stroke="#a49a8b" stroke-width="0.9"/>
<line x1="829.4" y1="540.4" x2="829.2" y2="533.4" stroke="#a49a8b" stroke-width="0.9"/>
<line x1="820.4" y1="540.7" x2="820.2" y2="533.8" stroke="#a49a8b" stroke-width="0.9"/>
<line x1="811.4" y1="541.1" x2="811.1" y2="534.1" stroke="#a49a8b" stroke-width="0.9"/>
<line x1="802.4" y1="541.4" x2="802.1" y2="534.4" stroke="#a49a8b" stroke-width="0.9"/>
<line x1="793.4" y1="541.7" x2="793.1" y2="534.7" stroke="#a49a8b" stroke-width="0.9"/>
<line x1="784.3" y1="542.1" x2="784.1" y2="535.1" stroke="#a49a8b" stroke-width="0.9"/>
<line x1="775.3" y1="542.4" x2="775.1" y2="535.4" stroke="#a49a8b" stroke-width="0.9"/>
<line x1="766.3" y1="542.7" x2="766.0" y2="535.7" stroke="#a49a8b" stroke-width="0.9"/>
<line x1="757.3" y1="543.0" x2="757.0" y2="536.0" stroke="#a49a8b" stroke-width="0.9"/>
<line x1="748.2" y1="543.4" x2="748.0" y2="536.4" stroke="#a49a8b" stroke-width="0.9"/>
<line x1="739.2" y1="543.7" x2="739.0" y2="536.7" stroke="#a49a8b" stroke-width="0.9"/>
<line x1="730.2" y1="544.0" x2="729.9" y2="537.0" stroke="#a49a8b" stroke-width="0.9"/>
<line x1="721.2" y1="544.3" x2="720.9" y2="537.4" stroke="#a49a8b" stroke-width="0.9"/>
<line x1="712.1" y1="544.7" x2="711.9" y2="537.7" stroke="#a49a8b" stroke-width="0.9"/>
<line x1="703.1" y1="545.0" x2="702.9" y2="538.0" stroke="#a49a8b" stroke-width="0.9"/>
<line x1="694.1" y1="545.3" x2="693.8" y2="538.3" stroke="#a49a8b" stroke-width="0.9"/>
<line x1="685.1" y1="545.7" x2="684.8" y2="538.7" stroke="#a49a8b" stroke-width="0.9"/>
<line x1="676.1" y1="546.0" x2="675.8" y2="539.0" stroke="#a49a8b" stroke-width="0.9"/>
<line x1="667.0" y1="546.3" x2="666.8" y2="539.3" stroke="#a49a8b" stroke-width="0.9"/>
<line x1="658.0" y1="546.6" x2="657.8" y2="539.6" stroke="#a49a8b" stroke-width="0.9"/>
<line x1="649.0" y1="547.0" x2="648.7" y2="540.0" stroke="#a49a8b" stroke-width="0.9"/>
<line x1="640.0" y1="547.3" x2="639.7" y2="540.3" stroke="#a49a8b" stroke-width="0.9"/>
<line x1="630.9" y1="547.6" x2="630.7" y2="540.6" stroke="#a49a8b" stroke-width="0.9"/>
<line x1="621.9" y1="547.9" x2="621.7" y2="541.0" stroke="#a49a8b" stroke-width="0.9"/>
<line x1="612.9" y1="548.3" x2="612.6" y2="541.3" stroke="#a49a8b" stroke-width="0.9"/>
<line x1="603.9" y1="548.6" x2="603.6" y2="541.6" stroke="#a49a8b" stroke-width="0.9"/>
<line x1="594.9" y1="548.9" x2="594.6" y2="541.9" stroke="#a49a8b" stroke-width="0.9"/>
<line x1="585.8" y1="549.3" x2="585.6" y2="542.3" stroke="#a49a8b" stroke-width="0.9"/>
<line x1="576.8" y1="549.6" x2="576.6" y2="542.6" stroke="#a49a8b" stroke-width="0.9"/>
<line x1="567.8" y1="549.9" x2="567.5" y2="542.9" stroke="#a49a8b" stroke-width="0.9"/>
<line x1="558.8" y1="550.2" x2="558.5" y2="543.2" stroke="#a49a8b" stroke-width="0.9"/>
<line x1="549.7" y1="550.6" x2="549.5" y2="543.6" stroke="#a49a8b" stroke-width="0.9"/>
<line x1="540.7" y1="550.9" x2="540.5" y2="543.9" stroke="#a49a8b" stroke-width="0.9"/>
<line x1="531.7" y1="551.2" x2="531.4" y2="544.2" stroke="#a49a8b" stroke-width="0.9"/>
<line x1="522.7" y1="551.5" x2="522.4" y2="544.6" stroke="#a49a8b" stroke-width="0.9"/>
<line x1="513.6" y1="551.9" x2="513.4" y2="544.9" stroke="#a49a8b" stroke-width="0.9"/>
<line x1="504.6" y1="552.2" x2="504.4" y2="545.2" stroke="#a49a8b" stroke-width="0.9"/>
<line x1="495.6" y1="552.5" x2="495.3" y2="545.5" stroke="#a49a8b" stroke-width="0.9"/>
<line x1="486.6" y1="552.9" x2="486.3" y2="545.9" stroke="#a49a8b" stroke-width="0.9"/>
<line x1="477.6" y1="553.2" x2="477.3" y2="546.2" stroke="#a49a8b" stroke-width="0.9"/>
<line x1="468.5" y1="553.5" x2="468.3" y2="546.5" stroke="#a49a8b" stroke-width="0.9"/>
<line x1="459.5" y1="553.8" x2="459.3" y2="546.8" stroke="#a49a8b" stroke-width="0.9"/>
<line x1="450.5" y1="553.7" x2="450.9" y2="546.7" stroke="#a49a8b" stroke-width="0.9"/>
<line x1="441.5" y1="553.2" x2="441.9" y2="546.2" stroke="#a49a8b" stroke-width="0.9"/>
<line x1="432.4" y1="552.6" x2="432.9" y2="545.6" stroke="#a49a8b" stroke-width="0.9"/>
<line x1="423.4" y1="552.1" x2="423.8" y2="545.1" stroke="#a49a8b" stroke-width="0.9"/>
<line x1="414.4" y1="551.5" x2="414.8" y2="544.6" stroke="#a49a8b" stroke-width="0.9"/>
<line x1="405.4" y1="551.0" x2="405.8" y2="544.0" stroke="#a49a8b" stroke-width="0.9"/>
<line x1="396.4" y1="550.5" x2="396.8" y2="543.5" stroke="#a49a8b" stroke-width="0.9"/>
<line x1="387.3" y1="549.9" x2="387.8" y2="542.9" stroke="#a49a8b" stroke-width="0.9"/>
<line x1="378.3" y1="549.4" x2="378.7" y2="542.4" stroke="#a49a8b" stroke-width="0.9"/>
<line x1="369.3" y1="548.8" x2="369.7" y2="541.8" stroke="#a49a8b" stroke-width="0.9"/>
<line x1="360.3" y1="548.3" x2="360.7" y2="541.3" stroke="#a49a8b" stroke-width="0.9"/>
<line x1="351.2" y1="547.7" x2="351.7" y2="540.7" stroke="#a49a8b" stroke-width="0.9"/>
<line x1="342.2" y1="547.2" x2="342.6" y2="540.2" stroke="#a49a8b" stroke-width="0.9"/>
<line x1="333.2" y1="546.6" x2="333.6" y2="539.6" stroke="#a49a8b" stroke-width="0.9"/>
<line x1="324.2" y1="546.1" x2="324.6" y2="539.1" stroke="#a49a8b" stroke-width="0.9"/>
<line x1="315.1" y1="545.5" x2="315.6" y2="538.6" stroke="#a49a8b" stroke-width="0.9"/>
<line x1="306.1" y1="545.0" x2="306.5" y2="538.0" stroke="#a49a8b" stroke-width="0.9"/>
<line x1="297.1" y1="544.5" x2="297.5" y2="537.5" stroke="#a49a8b" stroke-width="0.9"/>
<line x1="288.1" y1="543.9" x2="288.5" y2="536.9" stroke="#a49a8b" stroke-width="0.9"/>
<line x1="279.1" y1="543.4" x2="279.5" y2="536.4" stroke="#a49a8b" stroke-width="0.9"/>
<line x1="270.0" y1="542.8" x2="270.5" y2="535.8" stroke="#a49a8b" stroke-width="0.9"/>
<line x1="261.0" y1="542.3" x2="261.4" y2="535.3" stroke="#a49a8b" stroke-width="0.9"/>
<line x1="252.0" y1="541.7" x2="252.4" y2="534.7" stroke="#a49a8b" stroke-width="0.9"/>
<line x1="243.0" y1="541.2" x2="243.4" y2="534.2" stroke="#a49a8b" stroke-width="0.9"/>
<line x1="233.9" y1="540.6" x2="234.4" y2="533.6" stroke="#a49a8b" stroke-width="0.9"/>
<line x1="224.9" y1="540.1" x2="225.3" y2="533.1" stroke="#a49a8b" stroke-width="0.9"/>
<line x1="215.9" y1="539.5" x2="216.3" y2="532.6" stroke="#a49a8b" stroke-width="0.9"/>
<line x1="206.9" y1="539.0" x2="207.3" y2="532.0" stroke="#a49a8b" stroke-width="0.9"/>
<line x1="197.9" y1="538.5" x2="198.3" y2="531.5" stroke="#a49a8b" stroke-width="0.9"/>
<line x1="188.8" y1="537.9" x2="189.3" y2="530.9" stroke="#a49a8b" stroke-width="0.9"/>
<line x1="179.8" y1="537.4" x2="180.2" y2="530.4" stroke="#a49a8b" stroke-width="0.9"/>
<line x1="170.8" y1="536.8" x2="171.2" y2="529.8" stroke="#a49a8b" stroke-width="0.9"/>
<line x1="161.8" y1="536.3" x2="162.2" y2="529.3" stroke="#a49a8b" stroke-width="0.9"/>
<line x1="152.7" y1="535.7" x2="153.2" y2="528.7" stroke="#a49a8b" stroke-width="0.9"/>
<line x1="143.7" y1="535.2" x2="144.1" y2="528.2" stroke="#a49a8b" stroke-width="0.9"/>
<line x1="134.7" y1="534.6" x2="135.1" y2="527.6" stroke="#a49a8b" stroke-width="0.9"/>
<line x1="125.7" y1="534.1" x2="126.1" y2="527.1" stroke="#a49a8b" stroke-width="0.9"/>
<line x1="116.6" y1="533.5" x2="117.1" y2="526.6" stroke="#a49a8b" stroke-width="0.9"/>
<line x1="107.6" y1="533.0" x2="108.0" y2="526.0" stroke="#a49a8b" stroke-width="0.9"/>
<line x1="98.6" y1="532.5" x2="99.0" y2="525.5" stroke="#a49a8b" stroke-width="0.9"/>
<line x1="89.6" y1="531.9" x2="90.0" y2="524.9" stroke="#a49a8b" stroke-width="0.9"/>
<line x1="80.6" y1="531.4" x2="81.0" y2="524.4" stroke="#a49a8b" stroke-width="0.9"/>
<line x1="71.5" y1="530.8" x2="72.0" y2="523.8" stroke="#a49a8b" stroke-width="0.9"/>
<line x1="62.5" y1="530.3" x2="62.9" y2="523.3" stroke="#a49a8b" stroke-width="0.9"/>
<path d="M68.0,460.0 L308.0,474.0 L568.0,456.0 L842.0,466.0" fill="none" stroke="#d7cbb3" stroke-width="16" stroke-linejoin="round"/>
<path d="M68.0,460.0 L308.0,474.0 L568.0,456.0 L842.0,466.0" fill="none" stroke="#b8a888" stroke-width="1.2" stroke-linejoin="round" stroke-dasharray="8 5"/>
<text x="648.0" y="488.0" font-size="11" fill="#7d6a4a" font-style="italic">wadi bed</text>
<text x="168.0" y="230.0" font-size="11" fill="#8d8780" font-style="italic">slope</text>
<text x="168.0" y="560.0" font-size="11" fill="#8d8780" font-style="italic">slope</text>
<text x="518.0" y="300.0" font-size="12" fill="#7d6a4a" font-weight="700">valley floor · גי</text>
<text x="518.0" y="315.0" font-size="12" fill="#7d6a4a">Milik takes the word to imply cultivated ground</text>
<circle cx="378.0" cy="370.0" r="19.3" fill="#cdbfa5" stroke="#7d7264" stroke-width="0.9"/>
<circle cx="357.3" cy="381.5" r="14.7" fill="#cdbfa5" stroke="#7d7264" stroke-width="0.9"/>
<circle cx="398.7" cy="382.9" r="15.2" fill="#cdbfa5" stroke="#7d7264" stroke-width="0.9"/>
<circle cx="371.1" cy="352.5" r="13.8" fill="#cdbfa5" stroke="#7d7264" stroke-width="0.9"/>
<circle cx="389.5" cy="356.2" r="12.4" fill="#cdbfa5" stroke="#7d7264" stroke-width="0.9"/>
<circle cx="378.0" cy="390.7" r="12.9" fill="#cdbfa5" stroke="#7d7264" stroke-width="0.9"/>
<path d="M371,363 L385,377 M385,363 L371,377" fill="none" stroke="#b33a2a" stroke-width="2" stroke-linejoin="round"/>
<line x1="352.0" y1="380.0" x2="308.0" y2="410.0" stroke="#5a524a" stroke-width="0.8"/>
<text x="148.0" y="422.0" font-size="12.5" fill="#2a2420" font-weight="700">cairn · יגר</text>
<text x="148.0" y="437.6" font-size="12.5" fill="#2a2420">a heap of stones; Milik: “tumulus”</text>
<line x1="386.0" y1="364.0" x2="448.0" y2="340.0" stroke="#5a524a" stroke-width="0.8"/>
<text x="454.0" y="336.0" font-size="12" fill="#8e2e22" font-weight="700">silver, 12 talents</text>
<text x="454.0" y="351.0" font-size="12" fill="#8e2e22">dig 1 cubit ≈ 0.5 m</text>
<path d="M822,186 L830,218 L822,212 L814,218 Z" fill="#2a2420" stroke="none" stroke-width="1.0" stroke-linejoin="round"/>
<text x="822.0" y="180.0" font-size="14" fill="#2a2420" font-weight="700" text-anchor="middle">N</text>
<text x="64.0" y="678.0" font-size="13" fill="#2a2420" font-weight="700">Key</text>
<circle cx="76.0" cy="696.0" r="5.9" fill="#cdbfa5" stroke="#7d7264" stroke-width="0.9"/>
<circle cx="69.7" cy="699.5" r="4.5" fill="#cdbfa5" stroke="#7d7264" stroke-width="0.9"/>
<circle cx="82.3" cy="699.9" r="4.6" fill="#cdbfa5" stroke="#7d7264" stroke-width="0.9"/>
<circle cx="73.9" cy="690.7" r="4.2" fill="#cdbfa5" stroke="#7d7264" stroke-width="0.9"/>
<circle cx="79.5" cy="691.8" r="3.8" fill="#cdbfa5" stroke="#7d7264" stroke-width="0.9"/>
<circle cx="76.0" cy="702.3" r="3.9" fill="#cdbfa5" stroke="#7d7264" stroke-width="0.9"/>
<text x="94.0" y="700.0" font-size="11.5" fill="#5a524a">cairn (heap of stones)</text>
<path d="M71,717 L81,727 M81,717 L71,727" fill="none" stroke="#b33a2a" stroke-width="2" stroke-linejoin="round"/>
<text x="94.0" y="726.0" font-size="11.5" fill="#5a524a">deposit; depth as the text gives it</text>
<path d="M66.0,745.0 L86.0,745.0" fill="none" stroke="#a49a8b" stroke-width="1.6" stroke-linejoin="round"/>
<line x1="71.0" y1="745.0" x2="71.0" y2="752.0" stroke="#a49a8b" stroke-width="0.9"/>
<line x1="81.0" y1="745.0" x2="81.0" y2="752.0" stroke="#a49a8b" stroke-width="0.9"/>
<text x="94.0" y="752.0" font-size="11.5" fill="#5a524a">slope edge, ticks pointing downhill</text>
<path d="M66.0,774.0 L86.0,774.0" fill="none" stroke="#d7cbb3" stroke-width="16" stroke-linejoin="round"/>
<path d="M66.0,774.0 L86.0,774.0" fill="none" stroke="#b8a888" stroke-width="1.2" stroke-linejoin="round" stroke-dasharray="8 5"/>
<text x="94.0" y="778.0" font-size="11.5" fill="#5a524a">wadi bed (course arbitrary)</text>
<text x="64.0" y="862.0" font-size="10.5" fill="#8d8780">No scale: the text gives no distance. Cairn enlarged.</text>
<rect x="502.0" y="664.0" width="350.0" height="200.0" fill="#fbfaf7" stroke="#d6cfc4" stroke-width="1" rx="4"/>
<text x="512.0" y="682.0" font-size="11.5" fill="#2a2420" font-weight="700">Section through the cairn (not plan scale)</text>
<rect x="512.0" y="776.0" width="330.0" height="34.0" fill="url(#earth)" stroke="none" stroke-width="1.0"/>
<line x1="512.0" y1="776.0" x2="842.0" y2="776.0" stroke="#7d7264" stroke-width="1.4"/>
<path d="M562,776 Q592,730 632,728 Q672,730 702,776 Z" fill="#cdbfa5" stroke="#7d7264" stroke-width="1.2" stroke-linejoin="round"/>
<circle cx="592.0" cy="764.0" r="7.0" fill="#d8ccb4" stroke="#7d7264" stroke-width="0.8"/>
<circle cx="612.0" cy="750.0" r="8.0" fill="#d8ccb4" stroke="#7d7264" stroke-width="0.8"/>
<circle cx="637.0" cy="742.0" r="8.0" fill="#d8ccb4" stroke="#7d7264" stroke-width="0.8"/>
<circle cx="660.0" cy="754.0" r="8.0" fill="#d8ccb4" stroke="#7d7264" stroke-width="0.8"/>
<circle cx="680.0" cy="766.0" r="6.0" fill="#d8ccb4" stroke="#7d7264" stroke-width="0.8"/>
<circle cx="627.0" cy="764.0" r="7.0" fill="#d8ccb4" stroke="#7d7264" stroke-width="0.8"/>
<rect x="623.0" y="728.0" width="18.0" height="48.0" fill="none" stroke="#8e2e22" stroke-width="1.1" stroke-dasharray="3 2"/>
<path d="M627,771 L637,781 M637,771 L627,781" fill="none" stroke="#b33a2a" stroke-width="2" stroke-linejoin="round"/>
<line x1="732.0" y1="728.0" x2="732.0" y2="776.0" stroke="#8e2e22" stroke-width="1.2"/>
<line x1="737.0" y1="728.0" x2="727.0" y2="728.0" stroke="#8e2e22" stroke-width="1.2"/>
<line x1="737.0" y1="776.0" x2="727.0" y2="776.0" stroke="#8e2e22" stroke-width="1.2"/>
<text x="722.0" y="752.0" font-size="11" fill="#8e2e22" font-weight="600" text-anchor="middle" transform="rotate(90.0 722.0 752.0)">1 cubit</text>
<line x1="641.0" y1="728.0" x2="736.0" y2="728.0" stroke="#b9b2a8" stroke-width="0.8" stroke-dasharray="3 3"/>
<line x1="641.0" y1="776.0" x2="736.0" y2="776.0" stroke="#b9b2a8" stroke-width="0.8" stroke-dasharray="3 3"/>
<text x="750.0" y="756.0" font-size="11" fill="#8e2e22" font-weight="600">≈ 0.5 m</text>
<text x="516.0" y="840.0" font-size="10.5" fill="#5a524a">Drawn from the top of the heap;</text>
<text x="516.0" y="854.0" font-size="10.5" fill="#5a524a">the level the cubit starts from is not stated.</text>
<rect x="890.0" y="100.0" width="470.0" height="430.0" fill="#ffffff" stroke="#d6cfc4" stroke-width="1.1" rx="6"/>
<text x="904.0" y="124.0" font-size="14" fill="#2a2420" font-weight="700">Alternative: a dam across the valley (Lurie; Eshel)</text>
<text x="904.0" y="144.0" font-size="11.5" fill="#5a524a">Eshel 2002: “the dam where the Qumran aqueduct starts”.</text>
<text x="904.0" y="160.0" font-size="11.5" fill="#5a524a">Puech 2015 rejects it: a flood “could carry it away”.</text>
<rect x="904.0" y="502.0" width="287.0" height="18.0" fill="#eeeae4" stroke="#a39b90" stroke-width="1" rx="9"/>
<text x="912.0" y="515.0" font-size="10.5" fill="#5f574e" font-weight="600">Alternative reading · the files leave it open</text>
<path d="M904.0,220.0 L1125.0,220.0 L1346.0,220.0 L1346.0,452.0 L1125.0,452.0 L904.0,452.0 Z" fill="#f3eee3" stroke="none" stroke-width="1.0" stroke-linejoin="round"/>
<path d="M904.0,220.0 L1125.0,220.0 L1346.0,220.0" fill="none" stroke="#a49a8b" stroke-width="1.6" stroke-linejoin="round"/>
<line x1="908.6" y1="220.0" x2="908.6" y2="227.0" stroke="#a49a8b" stroke-width="0.9"/>
<line x1="917.8" y1="220.0" x2="917.8" y2="227.0" stroke="#a49a8b" stroke-width="0.9"/>
<line x1="927.0" y1="220.0" x2="927.0" y2="227.0" stroke="#a49a8b" stroke-width="0.9"/>
<line x1="936.2" y1="220.0" x2="936.2" y2="227.0" stroke="#a49a8b" stroke-width="0.9"/>
<line x1="945.4" y1="220.0" x2="945.4" y2="227.0" stroke="#a49a8b" stroke-width="0.9"/>
<line x1="954.6" y1="220.0" x2="954.6" y2="227.0" stroke="#a49a8b" stroke-width="0.9"/>
<line x1="963.9" y1="220.0" x2="963.9" y2="227.0" stroke="#a49a8b" stroke-width="0.9"/>
<line x1="973.1" y1="220.0" x2="973.1" y2="227.0" stroke="#a49a8b" stroke-width="0.9"/>
<line x1="982.3" y1="220.0" x2="982.3" y2="227.0" stroke="#a49a8b" stroke-width="0.9"/>
<line x1="991.5" y1="220.0" x2="991.5" y2="227.0" stroke="#a49a8b" stroke-width="0.9"/>
<line x1="1000.7" y1="220.0" x2="1000.7" y2="227.0" stroke="#a49a8b" stroke-width="0.9"/>
<line x1="1009.9" y1="220.0" x2="1009.9" y2="227.0" stroke="#a49a8b" stroke-width="0.9"/>
<line x1="1019.1" y1="220.0" x2="1019.1" y2="227.0" stroke="#a49a8b" stroke-width="0.9"/>
<line x1="1028.3" y1="220.0" x2="1028.3" y2="227.0" stroke="#a49a8b" stroke-width="0.9"/>
<line x1="1037.5" y1="220.0" x2="1037.5" y2="227.0" stroke="#a49a8b" stroke-width="0.9"/>
<line x1="1046.7" y1="220.0" x2="1046.7" y2="227.0" stroke="#a49a8b" stroke-width="0.9"/>
<line x1="1055.9" y1="220.0" x2="1055.9" y2="227.0" stroke="#a49a8b" stroke-width="0.9"/>
<line x1="1065.1" y1="220.0" x2="1065.1" y2="227.0" stroke="#a49a8b" stroke-width="0.9"/>
<line x1="1074.4" y1="220.0" x2="1074.4" y2="227.0" stroke="#a49a8b" stroke-width="0.9"/>
<line x1="1083.6" y1="220.0" x2="1083.6" y2="227.0" stroke="#a49a8b" stroke-width="0.9"/>
<line x1="1092.8" y1="220.0" x2="1092.8" y2="227.0" stroke="#a49a8b" stroke-width="0.9"/>
<line x1="1102.0" y1="220.0" x2="1102.0" y2="227.0" stroke="#a49a8b" stroke-width="0.9"/>
<line x1="1111.2" y1="220.0" x2="1111.2" y2="227.0" stroke="#a49a8b" stroke-width="0.9"/>
<line x1="1120.4" y1="220.0" x2="1120.4" y2="227.0" stroke="#a49a8b" stroke-width="0.9"/>
<line x1="1129.6" y1="220.0" x2="1129.6" y2="227.0" stroke="#a49a8b" stroke-width="0.9"/>
<line x1="1138.8" y1="220.0" x2="1138.8" y2="227.0" stroke="#a49a8b" stroke-width="0.9"/>
<line x1="1148.0" y1="220.0" x2="1148.0" y2="227.0" stroke="#a49a8b" stroke-width="0.9"/>
<line x1="1157.2" y1="220.0" x2="1157.2" y2="227.0" stroke="#a49a8b" stroke-width="0.9"/>
<line x1="1166.4" y1="220.0" x2="1166.4" y2="227.0" stroke="#a49a8b" stroke-width="0.9"/>
<line x1="1175.6" y1="220.0" x2="1175.6" y2="227.0" stroke="#a49a8b" stroke-width="0.9"/>
<line x1="1184.9" y1="220.0" x2="1184.9" y2="227.0" stroke="#a49a8b" stroke-width="0.9"/>
<line x1="1194.1" y1="220.0" x2="1194.1" y2="227.0" stroke="#a49a8b" stroke-width="0.9"/>
<line x1="1203.3" y1="220.0" x2="1203.3" y2="227.0" stroke="#a49a8b" stroke-width="0.9"/>
<line x1="1212.5" y1="220.0" x2="1212.5" y2="227.0" stroke="#a49a8b" stroke-width="0.9"/>
<line x1="1221.7" y1="220.0" x2="1221.7" y2="227.0" stroke="#a49a8b" stroke-width="0.9"/>
<line x1="1230.9" y1="220.0" x2="1230.9" y2="227.0" stroke="#a49a8b" stroke-width="0.9"/>
<line x1="1240.1" y1="220.0" x2="1240.1" y2="227.0" stroke="#a49a8b" stroke-width="0.9"/>
<line x1="1249.3" y1="220.0" x2="1249.3" y2="227.0" stroke="#a49a8b" stroke-width="0.9"/>
<line x1="1258.5" y1="220.0" x2="1258.5" y2="227.0" stroke="#a49a8b" stroke-width="0.9"/>
<line x1="1267.7" y1="220.0" x2="1267.7" y2="227.0" stroke="#a49a8b" stroke-width="0.9"/>
<line x1="1276.9" y1="220.0" x2="1276.9" y2="227.0" stroke="#a49a8b" stroke-width="0.9"/>
<line x1="1286.1" y1="220.0" x2="1286.1" y2="227.0" stroke="#a49a8b" stroke-width="0.9"/>
<line x1="1295.4" y1="220.0" x2="1295.4" y2="227.0" stroke="#a49a8b" stroke-width="0.9"/>
<line x1="1304.6" y1="220.0" x2="1304.6" y2="227.0" stroke="#a49a8b" stroke-width="0.9"/>
<line x1="1313.8" y1="220.0" x2="1313.8" y2="227.0" stroke="#a49a8b" stroke-width="0.9"/>
<line x1="1323.0" y1="220.0" x2="1323.0" y2="227.0" stroke="#a49a8b" stroke-width="0.9"/>
<line x1="1332.2" y1="220.0" x2="1332.2" y2="227.0" stroke="#a49a8b" stroke-width="0.9"/>
<line x1="1341.4" y1="220.0" x2="1341.4" y2="227.0" stroke="#a49a8b" stroke-width="0.9"/>
<path d="M1346.0,452.0 L1125.0,452.0 L904.0,452.0" fill="none" stroke="#a49a8b" stroke-width="1.6" stroke-linejoin="round"/>
<line x1="1341.4" y1="452.0" x2="1341.4" y2="445.0" stroke="#a49a8b" stroke-width="0.9"/>
<line x1="1332.2" y1="452.0" x2="1332.2" y2="445.0" stroke="#a49a8b" stroke-width="0.9"/>
<line x1="1323.0" y1="452.0" x2="1323.0" y2="445.0" stroke="#a49a8b" stroke-width="0.9"/>
<line x1="1313.8" y1="452.0" x2="1313.8" y2="445.0" stroke="#a49a8b" stroke-width="0.9"/>
<line x1="1304.6" y1="452.0" x2="1304.6" y2="445.0" stroke="#a49a8b" stroke-width="0.9"/>
<line x1="1295.4" y1="452.0" x2="1295.4" y2="445.0" stroke="#a49a8b" stroke-width="0.9"/>
<line x1="1286.1" y1="452.0" x2="1286.1" y2="445.0" stroke="#a49a8b" stroke-width="0.9"/>
<line x1="1276.9" y1="452.0" x2="1276.9" y2="445.0" stroke="#a49a8b" stroke-width="0.9"/>
<line x1="1267.7" y1="452.0" x2="1267.7" y2="445.0" stroke="#a49a8b" stroke-width="0.9"/>
<line x1="1258.5" y1="452.0" x2="1258.5" y2="445.0" stroke="#a49a8b" stroke-width="0.9"/>
<line x1="1249.3" y1="452.0" x2="1249.3" y2="445.0" stroke="#a49a8b" stroke-width="0.9"/>
<line x1="1240.1" y1="452.0" x2="1240.1" y2="445.0" stroke="#a49a8b" stroke-width="0.9"/>
<line x1="1230.9" y1="452.0" x2="1230.9" y2="445.0" stroke="#a49a8b" stroke-width="0.9"/>
<line x1="1221.7" y1="452.0" x2="1221.7" y2="445.0" stroke="#a49a8b" stroke-width="0.9"/>
<line x1="1212.5" y1="452.0" x2="1212.5" y2="445.0" stroke="#a49a8b" stroke-width="0.9"/>
<line x1="1203.3" y1="452.0" x2="1203.3" y2="445.0" stroke="#a49a8b" stroke-width="0.9"/>
<line x1="1194.1" y1="452.0" x2="1194.1" y2="445.0" stroke="#a49a8b" stroke-width="0.9"/>
<line x1="1184.9" y1="452.0" x2="1184.9" y2="445.0" stroke="#a49a8b" stroke-width="0.9"/>
<line x1="1175.6" y1="452.0" x2="1175.6" y2="445.0" stroke="#a49a8b" stroke-width="0.9"/>
<line x1="1166.4" y1="452.0" x2="1166.4" y2="445.0" stroke="#a49a8b" stroke-width="0.9"/>
<line x1="1157.2" y1="452.0" x2="1157.2" y2="445.0" stroke="#a49a8b" stroke-width="0.9"/>
<line x1="1148.0" y1="452.0" x2="1148.0" y2="445.0" stroke="#a49a8b" stroke-width="0.9"/>
<line x1="1138.8" y1="452.0" x2="1138.8" y2="445.0" stroke="#a49a8b" stroke-width="0.9"/>
<line x1="1129.6" y1="452.0" x2="1129.6" y2="445.0" stroke="#a49a8b" stroke-width="0.9"/>
<line x1="1120.4" y1="452.0" x2="1120.4" y2="445.0" stroke="#a49a8b" stroke-width="0.9"/>
<line x1="1111.2" y1="452.0" x2="1111.2" y2="445.0" stroke="#a49a8b" stroke-width="0.9"/>
<line x1="1102.0" y1="452.0" x2="1102.0" y2="445.0" stroke="#a49a8b" stroke-width="0.9"/>
<line x1="1092.8" y1="452.0" x2="1092.8" y2="445.0" stroke="#a49a8b" stroke-width="0.9"/>
<line x1="1083.6" y1="452.0" x2="1083.6" y2="445.0" stroke="#a49a8b" stroke-width="0.9"/>
<line x1="1074.4" y1="452.0" x2="1074.4" y2="445.0" stroke="#a49a8b" stroke-width="0.9"/>
<line x1="1065.1" y1="452.0" x2="1065.1" y2="445.0" stroke="#a49a8b" stroke-width="0.9"/>
<line x1="1055.9" y1="452.0" x2="1055.9" y2="445.0" stroke="#a49a8b" stroke-width="0.9"/>
<line x1="1046.7" y1="452.0" x2="1046.7" y2="445.0" stroke="#a49a8b" stroke-width="0.9"/>
<line x1="1037.5" y1="452.0" x2="1037.5" y2="445.0" stroke="#a49a8b" stroke-width="0.9"/>
<line x1="1028.3" y1="452.0" x2="1028.3" y2="445.0" stroke="#a49a8b" stroke-width="0.9"/>
<line x1="1019.1" y1="452.0" x2="1019.1" y2="445.0" stroke="#a49a8b" stroke-width="0.9"/>
<line x1="1009.9" y1="452.0" x2="1009.9" y2="445.0" stroke="#a49a8b" stroke-width="0.9"/>
<line x1="1000.7" y1="452.0" x2="1000.7" y2="445.0" stroke="#a49a8b" stroke-width="0.9"/>
<line x1="991.5" y1="452.0" x2="991.5" y2="445.0" stroke="#a49a8b" stroke-width="0.9"/>
<line x1="982.3" y1="452.0" x2="982.3" y2="445.0" stroke="#a49a8b" stroke-width="0.9"/>
<line x1="973.1" y1="452.0" x2="973.1" y2="445.0" stroke="#a49a8b" stroke-width="0.9"/>
<line x1="963.9" y1="452.0" x2="963.9" y2="445.0" stroke="#a49a8b" stroke-width="0.9"/>
<line x1="954.6" y1="452.0" x2="954.6" y2="445.0" stroke="#a49a8b" stroke-width="0.9"/>
<line x1="945.4" y1="452.0" x2="945.4" y2="445.0" stroke="#a49a8b" stroke-width="0.9"/>
<line x1="936.2" y1="452.0" x2="936.2" y2="445.0" stroke="#a49a8b" stroke-width="0.9"/>
<line x1="927.0" y1="452.0" x2="927.0" y2="445.0" stroke="#a49a8b" stroke-width="0.9"/>
<line x1="917.8" y1="452.0" x2="917.8" y2="445.0" stroke="#a49a8b" stroke-width="0.9"/>
<line x1="908.6" y1="452.0" x2="908.6" y2="445.0" stroke="#a49a8b" stroke-width="0.9"/>
<path d="M1114,234 C1048,240 968,280 948,336.0 C968,392 1048,432 1114,438 Z" fill="#bcd6e8" stroke="#245b82" stroke-width="1.2" stroke-linejoin="round"/>
<path d="M914.0,336.0 L948.0,336.0" fill="none" stroke="#d7cbb3" stroke-width="16" stroke-linejoin="round"/>
<path d="M914.0,336.0 L948.0,336.0" fill="none" stroke="#b8a888" stroke-width="1.2" stroke-linejoin="round" stroke-dasharray="8 5"/>
<path d="M1124.0,342.0 L1336.0,356.0" fill="none" stroke="#d7cbb3" stroke-width="16" stroke-linejoin="round"/>
<path d="M1124.0,342.0 L1336.0,356.0" fill="none" stroke="#b8a888" stroke-width="1.2" stroke-linejoin="round" stroke-dasharray="8 5"/>
<path d="M1118.0,224.0 L1118.0,448.0" fill="none" stroke="#7d7264" stroke-width="11" stroke-linejoin="miter"/>
<path d="M1112,360.0 L1124,372.0 M1124,360.0 L1112,372.0" fill="none" stroke="#b33a2a" stroke-width="2" stroke-linejoin="round"/>
<text x="1132.0" y="388.0" font-size="11" fill="#8e2e22" font-weight="700">in the dam:</text>
<text x="1132.0" y="401.8" font-size="11" fill="#8e2e22">dig 1 cubit</text>
<path d="M1108.0,238.0 L1158.0,250.0 L1322.0,260.0" fill="none" stroke="#245b82" stroke-width="6.4" stroke-linejoin="round"/>
<path d="M1108.0,238.0 L1158.0,250.0 L1322.0,260.0" fill="none" stroke="#cfe1ee" stroke-width="4" stroke-linejoin="round"/>
<line x1="1207.2" y1="253.0" x2="1240.0" y2="255.0" stroke="#245b82" stroke-width="1.4" marker-end="url(#ah-blue)"/>
<text x="1158.0" y="282.0" font-size="11" fill="#245b82" font-weight="700">conduit leaving from the dam</text>
<text x="1158.0" y="295.8" font-size="11" fill="#245b82">(Eshel's setting)</text>
<text x="1008.0" y="306.0" font-size="11" fill="#245b82" font-style="italic">pond</text>
<text x="1128.0" y="212.0" font-size="12" fill="#2a2420" font-weight="700">dam · יגר</text>
<path d="M1322,396 L1330,428 L1322,422 L1314,428 Z" fill="#2a2420" stroke="none" stroke-width="1.0" stroke-linejoin="round"/>
<text x="1322.0" y="390.0" font-size="14" fill="#2a2420" font-weight="700" text-anchor="middle">N</text>
<rect x="890.0" y="542.0" width="470.0" height="338.0" fill="#ffffff" stroke="#d6cfc4" stroke-width="1.1" rx="6"/>
<text x="904.0" y="566.0" font-size="14" fill="#2a2420" font-weight="700">Readings that leave the plan unchanged</text>
<rect x="904.0" y="852.0" width="94.8" height="18.0" fill="#eeeae4" stroke="#a39b90" stroke-width="1" rx="9"/>
<text x="912.0" y="865.0" font-size="10.5" fill="#5f574e" font-weight="600">Placement only</text>
<circle cx="920.0" cy="602.0" r="8.4" fill="#cdbfa5" stroke="#7d7264" stroke-width="0.9"/>
<circle cx="911.0" cy="607.0" r="6.4" fill="#cdbfa5" stroke="#7d7264" stroke-width="0.9"/>
<circle cx="929.0" cy="607.6" r="6.6" fill="#cdbfa5" stroke="#7d7264" stroke-width="0.9"/>
<circle cx="917.0" cy="594.4" r="6.0" fill="#cdbfa5" stroke="#7d7264" stroke-width="0.9"/>
<circle cx="925.0" cy="596.0" r="5.4" fill="#cdbfa5" stroke="#7d7264" stroke-width="0.9"/>
<circle cx="920.0" cy="611.0" r="5.6" fill="#cdbfa5" stroke="#7d7264" stroke-width="0.9"/>
<text x="948.0" y="594.0" font-size="11.5" fill="#5a524a">Heap of stones: “cairn” (Puech), “tumulus” (Milik 1962),</text>
<text x="948.0" y="609.2" font-size="11.5" fill="#5a524a">“cairn or tumulus” (Høgenhaven 2020). The same feature on the</text>
<text x="948.0" y="624.4" font-size="11.5" fill="#5a524a">plan.</text>
<path transform="translate(920.0,663.5) scale(0.733)" d="M-14,-6 C-15,-14 -5,-17 3,-16 C11,-15 16,-9 15,-1 C16,8 10,15 1,15 C-8,16 -16,10 -15,3 C-17,0 -14,-3 -14,-6 Z" fill="#d9d0bf" stroke="#7d7264" stroke-width="1.91"/>
<circle cx="920.0" cy="663.5" r="1.8" fill="#2a2420" stroke="none" stroke-width="1.0"/>
<text x="948.0" y="655.5" font-size="11.5" fill="#5a524a">Which valley: Puech 2006 puts Sekakah at Kh. Qumran; Milik</text>
<text x="948.0" y="670.7" font-size="11.5" fill="#5a524a">1960 makes Sekaka the whole Wadi Qumran; Milik 1962 puts the</text>
<text x="948.0" y="685.9" font-size="11.5" fill="#5a524a">valley by the cultivated edge of ʿEin Feshkha.</text>
<text x="948.0" y="717.1" font-size="11.5" fill="#2a2420">These readings move the valley on the map or rename the heap.</text>
<text x="948.0" y="732.3" font-size="11.5" fill="#2a2420">They do not change the arrangement: a cairn on a valley floor,</text>
<text x="948.0" y="747.4" font-size="11.5" fill="#2a2420">dug one cubit.</text>
<rect x="40.0" y="900.0" width="1320.0" height="164.0" fill="#ffffff" stroke="#d6cfc4" stroke-width="1.1" rx="6"/>
<text x="60.0" y="926.0" font-size="13" fill="#2a2420" font-weight="700">Text (IV 13–14)</text>
<text x="60.0" y="943.0" font-size="11.5" fill="#5a524a">“In the cairn of the valley of Secacah, dig a cubit: silver, 12 talents.”</text>
<text x="60.0" y="966.2" font-size="13" fill="#2a2420" font-weight="700">What the plan assumes</text>
<text x="60.0" y="983.2" font-size="11.5" fill="#5a524a">The letters יגר are secure; the plan reads them as a heap of stones standing on the valley floor. The</text>
<text x="60.0" y="998.4" font-size="11.5" fill="#5a524a">valley's course and the cairn's position are arbitrary, because the text gives no direction or</text>
<text x="60.0" y="1013.5" font-size="11.5" fill="#5a524a">distance. The one cubit is dug at the cairn; the level it starts from is not stated.</text>
<text x="700.0" y="926.0" font-size="13" fill="#2a2420" font-weight="700">Project placement</text>
<text x="700.0" y="943.0" font-size="11.5" fill="#5a524a">Best-supported, medium. Wadi Qumran below Kh. Qumran (preferred, medium); Kh. Qumran (possible, low).</text>
<text x="700.0" y="958.2" font-size="11.5" fill="#5a524a">The placement rests on Sekakah = Qumran; no ancient name survives there.</text>
<text x="700.0" y="981.4" font-size="13" fill="#2a2420" font-weight="700">What the records show</text>
<text x="700.0" y="998.4" font-size="11.5" fill="#5a524a">Both senses of the word match features published for Qumran in the period: stone-capped graves and a</text>
<text x="700.0" y="1013.5" font-size="11.5" fill="#5a524a">dam at the aqueduct head; the IAA survey adds a tumulus and stone heaps of unestablished date. No</text>
<text x="700.0" y="1028.7" font-size="11.5" fill="#5a524a">report singles out “the” cairn, and the dam is reconstructed (phase5_assessments.csv;</text>
<text x="700.0" y="1043.9" font-size="11.5" fill="#5a524a">feature_constraints.csv).</text>
</svg>
