<svg xmlns="http://www.w3.org/2000/svg" viewBox="0 0 1400 1200" width="1400" height="1200" font-family="Helvetica Neue, Helvetica, Arial, DejaVu Sans, sans-serif">
<title>Copper Scroll entry 16: the entering conduit</title>
<defs>
 <marker id="ah-ink" viewBox="0 0 10 10" refX="8" refY="5" markerWidth="6" markerHeight="6" orient="auto-start-reverse"><path d="M0,0 L10,5 L0,10 z" fill="#2a2420"/></marker>
 <marker id="ah-ochre" viewBox="0 0 10 10" refX="8" refY="5" markerWidth="6" markerHeight="6" orient="auto-start-reverse"><path d="M0,0 L10,5 L0,10 z" fill="#8a5a17"/></marker>
 <marker id="ah-blue" viewBox="0 0 10 10" refX="8" refY="5" markerWidth="6" markerHeight="6" orient="auto-start-reverse"><path d="M0,0 L10,5 L0,10 z" fill="#245b82"/></marker>
 <marker id="ah-red" viewBox="0 0 10 10" refX="8" refY="5" markerWidth="6" markerHeight="6" orient="auto-start-reverse"><path d="M0,0 L10,5 L0,10 z" fill="#8e2e22"/></marker>
 <pattern id="hatch" width="4" height="4" patternUnits="userSpaceOnUse" patternTransform="rotate(45)"><rect width="4" height="4" fill="#efe3cf"/><line x1="0" y1="0" x2="0" y2="4" stroke="#8a5a17" stroke-width="1.2"/></pattern>
 <pattern id="rockfill" width="8" height="8" patternUnits="userSpaceOnUse"><rect width="8" height="8" fill="#e7dfd0"/><circle cx="2" cy="2" r="0.8" fill="#a49a8b"/><circle cx="6" cy="6" r="0.6" fill="#a49a8b"/></pattern>
 <pattern id="field" width="10" height="10" patternUnits="userSpaceOnUse"><rect width="10" height="10" fill="#eef1e4"/><line x1="0" y1="5" x2="10" y2="5" stroke="#b9c4a0" stroke-width="0.8"/></pattern>
 <pattern id="earth" width="6" height="6" patternUnits="userSpaceOnUse"><rect width="6" height="6" fill="#efe6d6"/><circle cx="3" cy="3" r="0.9" fill="#c9b897"/></pattern>
</defs>
<rect width="1400" height="1200" fill="#fbfaf7"/>
<text x="40.0" y="48.0" font-size="24" fill="#2a2420" font-weight="700">Entry 16 (IV 3–5) — the entering conduit</text>
<text x="40.0" y="74.0" font-size="14.5" fill="#5a524a">Schematic plan; the text gives no direction, so the orientation is arbitrary. One arrangement the text allows; not a reconstruction of any real site.</text>
<rect x="40.0" y="100.0" width="830.0" height="910.0" fill="#ffffff" stroke="#d6cfc4" stroke-width="1.1" rx="6"/>
<text x="54.0" y="124.0" font-size="14" fill="#2a2420" font-weight="700">Project reading: in the conduit, forty-one cubits as you go in</text>
<text x="54.0" y="144.0" font-size="11.5" fill="#5a524a">The text gives no direction, so the orientation is arbitrary. The conduit's goal is lost (◦◦).</text>
<text x="54.0" y="160.0" font-size="11.5" fill="#5a524a">41 cubits is Milik's restoration (only “four” survives), measured along the conduit from its entrance.</text>
<rect x="56.0" y="260.0" width="96.0" height="260.0" fill="url(#earth)" stroke="none" stroke-width="1.0" fill-opacity="0.8"/>
<text x="64.0" y="282.0" font-size="11.5" fill="#5a524a" font-style="italic">outside</text>
<path d="M80.0,390.0 L744.0,390.0" fill="none" stroke="#245b82" stroke-width="18.4" stroke-linejoin="round"/>
<path d="M80.0,390.0 L744.0,390.0" fill="none" stroke="#cfe1ee" stroke-width="16" stroke-linejoin="round"/>
<line x1="682.0" y1="390.0" x2="722.0" y2="390.0" stroke="#245b82" stroke-width="1.4" marker-end="url(#ah-blue)"/>
<rect x="744.0" y="344.0" width="72.0" height="92.0" fill="#f6f3ee" stroke="#8d8780" stroke-width="1.3" rx="4" stroke-dasharray="5 4"/>
<text x="780.0" y="396.0" font-size="18" fill="#8d8780" font-weight="700" text-anchor="middle">◦◦</text>
<text x="780.0" y="462.0" font-size="11.5" fill="#8d8780" font-weight="700" text-anchor="middle">goal lost</text>
<text x="780.0" y="476.4" font-size="11.5" fill="#8d8780" text-anchor="middle">“comes in ◦◦”</text>
<line x1="160.0" y1="356.0" x2="160.0" y2="410.0" stroke="#8a5a17" stroke-width="1.4" stroke-dasharray="3 3"/>
<line x1="170.0" y1="434.0" x2="230.0" y2="434.0" stroke="#8a5a17" stroke-width="2" marker-end="url(#ah-ochre)"/>
<circle cx="164.0" cy="434.0" r="4.0" fill="#8a5a17" stroke="none" stroke-width="1.0"/>
<text x="156.0" y="462.0" font-size="11.5" fill="#8a5a17" font-weight="700">“as you go in”</text>
<text x="156.0" y="476.4" font-size="11.5" fill="#8a5a17">measured from here</text>
<line x1="160.0" y1="356.0" x2="652.0" y2="356.0" stroke="#8e2e22" stroke-width="1.2"/>
<line x1="160.0" y1="351.0" x2="160.0" y2="361.0" stroke="#8e2e22" stroke-width="1.2"/>
<line x1="652.0" y1="351.0" x2="652.0" y2="361.0" stroke="#8e2e22" stroke-width="1.2"/>
<text x="406.0" y="352.0" font-size="11" fill="#8e2e22" font-weight="600" text-anchor="middle">41 cubits ≈ 20.5 m (restored)</text>
<line x1="652.0" y1="350.0" x2="652.0" y2="384.0" stroke="#b9b2a8" stroke-width="0.8" stroke-dasharray="3 3"/>
<path d="M645,383 L659,397 M659,383 L645,397" fill="none" stroke="#b33a2a" stroke-width="2" stroke-linejoin="round"/>
<text x="646.0" y="420.0" font-size="12" fill="#8e2e22" font-weight="700" text-anchor="end">silver, 55 talents</text>
<text x="300.0" y="324.0" font-size="12" fill="#245b82" font-weight="700">conduit · אמא</text>
<path d="M790,204 L798,236 L790,230 L782,236 Z" fill="#2a2420" stroke="none" stroke-width="1.0" stroke-linejoin="round"/>
<text x="790.0" y="198.0" font-size="14" fill="#2a2420" font-weight="700" text-anchor="middle">N?</text>
<text x="790.0" y="254.0" font-size="10.5" fill="#8d8780" text-anchor="middle">orientation arbitrary</text>
<rect x="160.0" y="520.0" width="120.0" height="6.0" fill="#2a2420" stroke="none" stroke-width="1.0"/>
<rect x="280.0" y="520.0" width="120.0" height="6.0" fill="#fbfaf7" stroke="#2a2420" stroke-width="1"/>
<text x="160.0" y="540.0" font-size="11" fill="#2a2420">0</text>
<text x="400.0" y="540.0" font-size="11" fill="#2a2420" text-anchor="middle">10 m</text>
<text x="160.0" y="556.0" font-size="10.5" fill="#8d8780">Drawn to scale along the conduit: 1 cubit taken as about 0.5 m</text>
<rect x="56.0" y="640.0" width="798.0" height="300.0" fill="#faf8f4" stroke="#d6cfc4" stroke-width="1" rx="6"/>
<text x="72.0" y="666.0" font-size="13" fill="#2a2420" font-weight="700">The words that carry the geometry</text>
<text x="72.0" y="700.0" font-size="11.5" fill="#2a2420" font-weight="700">in the conduit · אמא</text>
<text x="278.0" y="700.0" font-size="11.5" fill="#5a524a">a water conduit or channel (lexicon: high). Open or covered is not stated.</text>
<text x="72.0" y="728.0" font-size="11.5" fill="#2a2420" font-weight="700">that comes in ◦◦ · הבאה</text>
<text x="278.0" y="728.0" font-size="11.5" fill="#5a524a">the conduit's goal stood in the lacuna: Puech “to the pool(?)”,</text>
<text x="278.0" y="756.0" font-size="11.5" fill="#5a524a">Eshel “to Hyrcania”, Milik and Lefkovits leave it blank.</text>
<text x="72.0" y="794.0" font-size="11.5" fill="#2a2420" font-weight="700">as you go in · בביאתך</text>
<text x="278.0" y="794.0" font-size="11.5" fill="#5a524a">the measure starts where one enters; the entrance is not described.</text>
<text x="72.0" y="822.0" font-size="11.5" fill="#2a2420" font-weight="700">forty-one cubits</text>
<text x="278.0" y="822.0" font-size="11.5" fill="#5a524a">only “four” survives: 14 (Puech), 40 (Lefkovits), 41 (Milik 1962, Eshel).</text>
<text x="278.0" y="850.0" font-size="11.5" fill="#5a524a">Distance or depth is also disputed (Milik DJD; Lefkovits p. 161).</text>
<text x="72.0" y="922.0" font-size="11.5" fill="#8d8780" font-style="italic">No place name survives in this entry.</text>
<rect x="890.0" y="100.0" width="470.0" height="220.0" fill="#ffffff" stroke="#d6cfc4" stroke-width="1.1" rx="6"/>
<text x="904.0" y="124.0" font-size="14" fill="#2a2420" font-weight="700">Variant: “to the pool(?)”, 14 cubits (Puech)</text>
<text x="904.0" y="144.0" font-size="11.5" fill="#5a524a">Puech restores the goal as a pool and reads 14 cubits,</text>
<text x="904.0" y="160.0" font-size="11.5" fill="#5a524a">a distance (he excludes depth); Koḥlit from context.</text>
<rect x="904.0" y="292.0" width="243.6" height="18.0" fill="#eeeae4" stroke="#a39b90" stroke-width="1" rx="9"/>
<text x="912.0" y="305.0" font-size="10.5" fill="#5f574e" font-weight="600">Puech 2006, 2015 · alternative reading</text>
<path d="M906.0,230.0 L1134.0,230.0" fill="none" stroke="#245b82" stroke-width="10.4" stroke-linejoin="round"/>
<path d="M906.0,230.0 L1134.0,230.0" fill="none" stroke="#cfe1ee" stroke-width="8" stroke-linejoin="round"/>
<rect x="1136.0" y="210.0" width="56.0" height="40.0" fill="#bcd6e8" stroke="#245b82" stroke-width="1.6"/>
<path d="M1140.0,236.0 q7.0,-3 14.0,0 t14.0,0 t14.0,0" fill="none" stroke="#5d8fb3" stroke-width="0.9" stroke-linejoin="round"/>
<text x="1164.0" y="266.0" font-size="11" fill="#245b82" text-anchor="middle">pool</text>
<line x1="938.0" y1="210.0" x2="1064.0" y2="210.0" stroke="#8e2e22" stroke-width="1.2"/>
<line x1="938.0" y1="205.0" x2="938.0" y2="215.0" stroke="#8e2e22" stroke-width="1.2"/>
<line x1="1064.0" y1="205.0" x2="1064.0" y2="215.0" stroke="#8e2e22" stroke-width="1.2"/>
<text x="1001.0" y="206.0" font-size="11" fill="#8e2e22" font-weight="600" text-anchor="middle">14 cubits ≈ 7 m</text>
<path d="M1059.5,225.5 L1068.5,234.5 M1068.5,225.5 L1059.5,234.5" fill="none" stroke="#b33a2a" stroke-width="2" stroke-linejoin="round"/>
<line x1="938.0" y1="204.0" x2="938.0" y2="238.0" stroke="#8a5a17" stroke-width="1.2" stroke-dasharray="3 3"/>
<text x="1198.0" y="190.0" font-size="11.5" fill="#5a524a">Puech rejects “Hyrcania”</text>
<text x="1198.0" y="204.4" font-size="11.5" fill="#5a524a">as too long for the gap.</text>
<text x="1198.0" y="218.8" font-size="11.5" fill="#5a524a">No Koḥlit pool, entrance</text>
<text x="1198.0" y="233.1" font-size="11.5" fill="#5a524a">or phase is identified.</text>
<rect x="890.0" y="330.0" width="470.0" height="220.0" fill="#ffffff" stroke="#d6cfc4" stroke-width="1.1" rx="6"/>
<text x="904.0" y="354.0" font-size="14" fill="#2a2420" font-weight="700">Variant: “to Hyrcania” (Eshel 2002)</text>
<text x="904.0" y="374.0" font-size="11.5" fill="#5a524a">Hyrcania's northern aqueduct; the measure starts where</text>
<text x="904.0" y="390.0" font-size="11.5" fill="#5a524a">the trail meets it, west of Hyrcania. 41 cubits.</text>
<rect x="904.0" y="522.0" width="206.4" height="18.0" fill="#eeeae4" stroke="#a39b90" stroke-width="1" rx="9"/>
<text x="912.0" y="535.0" font-size="10.5" fill="#5f574e" font-weight="600">Eshel 2002 · alternative reading</text>
<path d="M906.0,460.0 L1172.5,460.0" fill="none" stroke="#245b82" stroke-width="8.4" stroke-linejoin="round"/>
<path d="M906.0,460.0 L1172.5,460.0" fill="none" stroke="#cfe1ee" stroke-width="6" stroke-linejoin="round"/>
<rect x="1183.5" y="451.0" width="18.0" height="18.0" fill="#d9d0bf" stroke="#2a2420" stroke-width="1.6"/>
<rect x="1180.5" y="448.0" width="6.0" height="6.0" fill="#7d7264" stroke="none" stroke-width="1.0"/>
<rect x="1198.5" y="448.0" width="6.0" height="6.0" fill="#7d7264" stroke="none" stroke-width="1.0"/>
<rect x="1180.5" y="466.0" width="6.0" height="6.0" fill="#7d7264" stroke="none" stroke-width="1.0"/>
<rect x="1198.5" y="466.0" width="6.0" height="6.0" fill="#7d7264" stroke="none" stroke-width="1.0"/>
<text x="1192.5" y="486.0" font-size="11" fill="#2a2420" font-weight="600" text-anchor="middle">Hyrcania</text>
<line x1="958.0" y1="426.0" x2="958.0" y2="490.0" stroke="#9a7b4f" stroke-width="2" stroke-dasharray="6 4"/>
<text x="950.0" y="490.0" font-size="11" fill="#7d6a4a" text-anchor="end" font-style="italic">trail</text>
<line x1="958.0" y1="444.0" x2="1142.5" y2="444.0" stroke="#8e2e22" stroke-width="1.2"/>
<line x1="958.0" y1="439.0" x2="958.0" y2="449.0" stroke="#8e2e22" stroke-width="1.2"/>
<line x1="1142.5" y1="439.0" x2="1142.5" y2="449.0" stroke="#8e2e22" stroke-width="1.2"/>
<text x="1050.2" y="440.0" font-size="11" fill="#8e2e22" font-weight="600" text-anchor="middle">41 cubits</text>
<path d="M1138.0,455.5 L1147.0,464.5 M1147.0,455.5 L1138.0,464.5" fill="none" stroke="#b33a2a" stroke-width="2" stroke-linejoin="round"/>
<text x="1223.0" y="422.0" font-size="11.5" fill="#5a524a">Eshel: the</text>
<text x="1223.0" y="436.4" font-size="11.5" fill="#5a524a">restoration assumes</text>
<text x="1223.0" y="450.8" font-size="11.5" fill="#5a524a">a geographical order</text>
<text x="1223.0" y="465.1" font-size="11.5" fill="#5a524a">in the list.</text>
<rect x="890.0" y="560.0" width="470.0" height="220.0" fill="#ffffff" stroke="#d6cfc4" stroke-width="1.1" rx="6"/>
<text x="904.0" y="584.0" font-size="14" fill="#2a2420" font-weight="700">The figure: 14, 40 or 41 cubits</text>
<text x="904.0" y="604.0" font-size="11.5" fill="#5a524a">Only “four” survives; the editions restore the rest.</text>
<text x="904.0" y="620.0" font-size="11.5" fill="#5a524a">Same start, same scale; the deposit moves along the conduit.</text>
<rect x="904.0" y="752.0" width="88.6" height="18.0" fill="#eeeae4" stroke="#a39b90" stroke-width="1" rx="9"/>
<text x="912.0" y="765.0" font-size="10.5" fill="#5f574e" font-weight="600">Distance only</text>
<text x="912.0" y="642.0" font-size="11" fill="#8e2e22" font-weight="600">14 cubits ≈ 7 m · Puech</text>
<line x1="912.0" y1="654.0" x2="1038.0" y2="654.0" stroke="#8e2e22" stroke-width="1.2"/>
<line x1="912.0" y1="649.0" x2="912.0" y2="659.0" stroke="#8e2e22" stroke-width="1.2"/>
<line x1="1038.0" y1="649.0" x2="1038.0" y2="659.0" stroke="#8e2e22" stroke-width="1.2"/>
<text x="975.0" y="650.0" font-size="11" fill="#8e2e22" font-weight="600" text-anchor="middle"></text>
<text x="912.0" y="678.0" font-size="11" fill="#245b82" font-weight="600">40 cubits ≈ 20 m · Lefkovits</text>
<line x1="912.0" y1="690.0" x2="1272.0" y2="690.0" stroke="#245b82" stroke-width="1.2"/>
<line x1="912.0" y1="685.0" x2="912.0" y2="695.0" stroke="#245b82" stroke-width="1.2"/>
<line x1="1272.0" y1="685.0" x2="1272.0" y2="695.0" stroke="#245b82" stroke-width="1.2"/>
<text x="1092.0" y="686.0" font-size="11" fill="#245b82" font-weight="600" text-anchor="middle"></text>
<text x="912.0" y="714.0" font-size="11" fill="#2a2420" font-weight="600">41 cubits ≈ 20.5 m · Milik 1962, Eshel</text>
<line x1="912.0" y1="726.0" x2="1281.0" y2="726.0" stroke="#2a2420" stroke-width="1.2"/>
<line x1="912.0" y1="721.0" x2="912.0" y2="731.0" stroke="#2a2420" stroke-width="1.2"/>
<line x1="1281.0" y1="721.0" x2="1281.0" y2="731.0" stroke="#2a2420" stroke-width="1.2"/>
<text x="1096.5" y="722.0" font-size="11" fill="#2a2420" font-weight="600" text-anchor="middle"></text>
<rect x="890.0" y="790.0" width="470.0" height="220.0" fill="#ffffff" stroke="#d6cfc4" stroke-width="1.1" rx="6"/>
<text x="904.0" y="814.0" font-size="14" fill="#2a2420" font-weight="700">Depth or distance?</text>
<text x="904.0" y="834.0" font-size="11.5" fill="#5a524a">Whether a bare number after “as you go in” is a depth is</text>
<text x="904.0" y="850.0" font-size="11.5" fill="#5a524a">disputed (Milik DJD; Lefkovits p. 161); Puech: distance.</text>
<rect x="904.0" y="982.0" width="113.4" height="18.0" fill="#eeeae4" stroke="#a39b90" stroke-width="1" rx="9"/>
<text x="912.0" y="995.0" font-size="10.5" fill="#5f574e" font-weight="600">Section, not plan</text>
<line x1="906.0" y1="886.0" x2="1098.0" y2="886.0" stroke="#7d7264" stroke-width="2"/>
<rect x="906.0" y="886.0" width="192.0" height="86.0" fill="url(#earth)" stroke="none" stroke-width="1.0" fill-opacity="0.7"/>
<text x="910.0" y="880.0" font-size="10.5" fill="#8d8780">surface</text>
<line x1="958.0" y1="890.0" x2="958.0" y2="966.0" stroke="#8e2e22" stroke-width="1.3" marker-end="url(#ah-red)"/>
<text x="968.0" y="936.0" font-size="11" fill="#8e2e22" font-weight="600">a depth below the entrance?</text>
<text x="1128.0" y="890.0" font-size="11.5" fill="#5a524a">If a depth, the deposit lies</text>
<text x="1128.0" y="906.0" font-size="11.5" fill="#5a524a">below, not along, the conduit.</text>
<text x="1128.0" y="922.0" font-size="11.5" fill="#5a524a">The text shown reads distance.</text>
<rect x="40.0" y="1030.0" width="1320.0" height="154.0" fill="#ffffff" stroke="#d6cfc4" stroke-width="1.1" rx="6"/>
<text x="60.0" y="1056.0" font-size="13" fill="#2a2420" font-weight="700">Text (IV 3–5)</text>
<text x="60.0" y="1073.0" font-size="11.5" fill="#5a524a">“In the conduit that comes in ◦◦, as you go in, forty-one cubits: silver, 55 talents.”</text>
<text x="60.0" y="1096.2" font-size="13" fill="#2a2420" font-weight="700">What the plan assumes</text>
<text x="60.0" y="1113.2" font-size="11.5" fill="#5a524a">The goal of the conduit is lost. The 41 cubits (Milik's restoration) run along the conduit from where</text>
<text x="60.0" y="1128.4" font-size="11.5" fill="#5a524a">one enters it. No direction is given, so the orientation is arbitrary; open or covered is not stated.</text>
<text x="700.0" y="1056.0" font-size="13" fill="#2a2420" font-weight="700">Project placement</text>
<text x="700.0" y="1073.0" font-size="11.5" fill="#5a524a">Possible only, low (atlas). Candidates: Tell es-Sultan (possible, low; Koḥlit by Puech's context) and</text>
<text x="700.0" y="1088.2" font-size="11.5" fill="#5a524a">Hyrcania / Kh. el-Mird and its aqueducts (possible, low; Eshel). No place name survives here.</text>
<text x="700.0" y="1111.4" font-size="13" fill="#2a2420" font-weight="700">What the records show</text>
<text x="700.0" y="1128.4" font-size="11.5" fill="#5a524a">Channels from the spring below Tell es-Sultan are undated; dated Hasmonean–Herodian conduits served</text>
<text x="700.0" y="1143.5" font-size="11.5" fill="#5a524a">the palaces to the south. Hyrcania's aqueducts are 1st c. BCE, but the link rests on Eshel's</text>
<text x="700.0" y="1158.7" font-size="11.5" fill="#5a524a">restoration (phase5_assessments.csv).</text>
</svg>
